<?xml version="1.0" encoding="UTF-8"?>
<svg id="Layer_1" data-name="Layer 1" xmlns="http://www.w3.org/2000/svg" viewBox="0 0 425.21 368.24">
  <defs>
    <style>
      .cls-1 {
        fill: #f05b25;
        stroke-width: 0px;
      }
    </style>
  </defs>
  <path class="cls-1" d="M208.22,156.64h-46.31l-37.95-33.22-16.31-41.81-50.93,42.03-14.59,82L0,219.36l170.16,148.89h105.01l29.53-29.54v-38.57l-48.75-30.2-47.72-113.29ZM207.96,194.47h-14.25l5.78,14.93h14.76l8.36,19.85h-15.43l5.79,14.93h15.94l10.66,25.3h0l-14.19,2.81-20.09-17.58-4.08-10.53-5.79-14.93-7.69-19.85-5.79-14.93-8.87-22.9h25.23l9.65,22.9ZM70.45,131.65l8.27-6.82,33.78,87.12-8.31,38.06-47.41-41.5h0s13.67-76.86,13.67-76.86ZM268.98,353.31h-93.21L29.6,225.42l17.37-5.66h0l140.88,123.32h91.35,0l-10.23,10.23ZM289.76,328.15h-96.3l-76.44-66.91,11.03-50.5-37.2-95.92h0s10.38-8.56,10.38-8.56l10.14,25.99,44.92,39.33h.77l8.87,22.9,5.78,14.93,7.69,19.85,5.79,14.93,7.49,19.35,28.37,24.84,27.51-5.45,41.2,25.53v19.71Z"/>
  <polygon class="cls-1" points="390.38 307.92 380.55 320.73 399.35 353.31 321.77 353.31 306.84 368.24 425.21 368.24 390.38 307.92"/>
  <path class="cls-1" d="M165.62,111.23l20.42,20.42h102.58l-7.42-12.85L212.61,0l-65.68,113.76,11.45,10.02,7.25-12.55ZM212.61,29.86l50.15,86.86h-70.53l-18.88-18.87,39.26-67.99Z"/>
  <polygon class="cls-1" points="25.87 353.31 57.15 299.12 60.96 292.53 49.51 282.5 45.7 289.1 0 368.24 136.14 368.24 119.08 353.31 25.87 353.31"/>
  <path class="cls-1" d="M278.62,232.57l1.18,25.74,27.31,16.98,18.98-25.05-20.09-28.53-27.38,10.86ZM303.43,255.41l-9.08-5.64-.33-7.25,6.54-2.6,7.04,9.99-4.17,5.5Z"/>
  <path class="cls-1" d="M270.8,179.52l14,25.88,28.6-10.29,3.29-1.19-.41-14.36-.43-15.2-12.44-7.1-2.81-1.61-16.24-9.26-13.56,33.12ZM291.74,167.8l9.43,5.38.3,10.36-9.64,3.46-4.52-8.37,4.43-10.83Z"/>
  <path class="cls-1" d="M359.49,311.37l20.77-27.03-15.23-19.52-33.49,12.22.62,28.04,27.33,6.3ZM359.95,282.57l1.43,1.84-7.88,10.26-6.66-1.54-.13-5.74,13.24-4.83Z"/>
</svg>