<?xml version="1.0" encoding="UTF-8"?>
<svg version="1.1" xmlns="http://www.w3.org/2000/svg" width="1920" height="1080">
<path d="M0 0 C633.6 0 1267.2 0 1920 0 C1920 356.4 1920 712.8 1920 1080 C1286.4 1080 652.8 1080 0 1080 C0 723.6 0 367.2 0 0 Z " fill="#FEFEFE" transform="translate(0,0)"/>
<path d="M0 0 C0.85078125 -0.03996094 1.7015625 -0.07992187 2.578125 -0.12109375 C3.37089844 -0.15847656 4.16367187 -0.19585937 4.98046875 -0.234375 C11.13279993 0.75035936 16.50388934 5.37135509 21.515625 8.87890625 C22.92659433 9.85747629 24.33808936 10.8352886 25.75 11.8125 C26.52408203 12.34858887 27.29816406 12.88467773 28.09570312 13.43701172 C32.9688744 16.79643313 37.86896085 20.11636739 42.765625 23.44140625 C44.92713575 24.9100791 47.0885939 26.37882939 49.25 27.84765625 C50.31798828 28.57339844 51.38597656 29.29914063 52.48632812 30.046875 C63.17186468 37.31171657 73.84763603 44.59096902 84.50708008 51.89404297 C93.88010281 58.31564259 103.27887124 64.69879849 112.68341064 71.07409668 C119.94388274 75.99650771 127.19420902 80.93246424 134.41357422 85.91503906 C141.06927823 90.50097083 147.762861 95.03113743 154.453125 99.56640625 C162.42165587 104.9682358 170.38706763 110.37421611 178.328125 115.81640625 C194.95215919 127.20385149 211.58897317 138.5692917 228.41088867 149.66333008 C233.0433337 152.73199489 237.60259975 155.86363198 242.08203125 159.15234375 C247.8350709 163.37352407 253.74767029 167.3255161 259.703125 171.25390625 C267.08858895 176.13518484 274.40515353 181.09049798 281.640625 186.19140625 C283.92696192 187.78252569 286.22009109 189.36359073 288.515625 190.94140625 C289.1657959 191.38838867 289.8159668 191.83537109 290.48583984 192.29589844 C298.61063432 197.87084178 306.77037091 203.39453681 314.92675781 208.9230957 C323.28244752 214.58727178 331.62318108 220.27294625 339.95751953 225.96850586 C345.65705426 229.85695864 351.38870906 233.69347712 357.140625 237.50390625 C366.15471601 243.4793827 375.01258977 249.66827816 383.640625 256.19140625 C382.22842411 259.61742034 380.7210535 261.12144378 377.625 263.1171875 C376.79726074 263.65867432 375.96952148 264.20016113 375.11669922 264.75805664 C374.21709473 265.33418701 373.31749023 265.91031738 372.390625 266.50390625 C370.47058682 267.7579405 368.55134073 269.01318818 366.6328125 270.26953125 C365.64120117 270.91599609 364.64958984 271.56246094 363.62792969 272.22851562 C358.88409254 275.34558417 354.19916667 278.54722833 349.515625 281.75390625 C348.61336182 282.37064209 347.71109863 282.98737793 346.78149414 283.62280273 C344.97298573 284.8592303 343.16479634 286.09612465 341.35693359 287.33349609 C338.59526247 289.22243347 335.83112058 291.10770764 333.06640625 292.9921875 C331.32027712 294.1835419 329.57418188 295.37494596 327.828125 296.56640625 C327.01520996 297.12013916 326.20229492 297.67387207 325.36474609 298.24438477 C324.62434082 298.75026123 323.88393555 299.2561377 323.12109375 299.77734375 C322.47035889 300.22126465 321.81962402 300.66518555 321.14916992 301.12255859 C319.6661897 302.10978551 319.6661897 302.10978551 318.640625 303.19140625 C318.14523094 307.25539145 318.14523094 307.25539145 318.640625 311.19140625 C322.31509658 315.6334657 326.83387634 318.42879317 331.703125 321.37890625 C332.76370117 322.03536133 332.76370117 322.03536133 333.84570312 322.70507812 C341.25066835 327.27063668 341.25066835 327.27063668 349.765625 328.56640625 C350.82007813 328.59476562 351.87453125 328.623125 352.9609375 328.65234375 C362.44789506 327.46395628 369.68481054 322.4414994 377.265625 316.94140625 C379.28100382 315.50823694 381.29798514 314.07731898 383.31640625 312.6484375 C384.35104004 311.91447754 385.38567383 311.18051758 386.45166016 310.42431641 C392.68618592 306.05890739 399.04596647 301.88074115 405.39501953 297.68457031 C410.74629163 294.14169737 416.03975712 290.53412888 421.28540039 286.83666992 C423.48605408 285.29938318 425.70586631 283.79844138 427.94140625 282.3125 C428.60849609 281.86583984 429.27558594 281.41917969 429.96289062 280.95898438 C431.30503424 280.06202677 432.65151241 279.17152574 434.00195312 278.28710938 C439.31162938 274.70761056 444.4856356 270.45618417 446.640625 264.19140625 C447.42827534 256.99476942 448.11919015 248.9086991 443.4609375 242.9140625 C440.45196236 240.06651306 437.12400505 237.91550494 433.6171875 235.72265625 C428.32305134 232.41206766 423.25179719 228.77491359 418.140625 225.19140625 C411.42986742 220.50731977 404.70945558 215.85522571 397.87890625 211.34765625 C390.39430898 206.36394371 382.99021046 201.25947542 375.56494141 196.18798828 C371.78309347 193.60592513 367.99899592 191.02717078 364.21484375 188.44848633 C346.45048361 176.3422759 346.45048361 176.3422759 338.44335938 170.84790039 C334.60824001 168.21638189 330.76483664 165.59902444 326.90234375 163.0078125 C326.15259277 162.5015332 325.4028418 161.99525391 324.63037109 161.47363281 C323.2112218 160.51565134 321.78852 159.56290522 320.36181641 158.61621094 C318.75238933 157.52551107 317.19057443 156.3650921 315.640625 155.19140625 C315.640625 154.53140625 315.640625 153.87140625 315.640625 153.19140625 C317.4921875 151.7734375 317.4921875 151.7734375 320.265625 150.00390625 C326.36252233 146.04020231 332.38682554 141.98238518 338.390625 137.87890625 C339.35266846 137.22237061 340.31471191 136.56583496 341.3059082 135.8894043 C346.6959667 132.20946478 352.0785922 128.51897309 357.453125 124.81640625 C366.36939254 118.67411446 375.32962381 112.59654427 384.28515625 106.51171875 C390.01236834 102.61994136 395.73367922 98.7195844 401.453125 94.81640625 C409.35140468 89.42685508 417.26133585 84.05469615 425.17572021 78.68884277 C433.67800794 72.92437913 442.17602159 67.15480892 450.63183594 61.32226562 C458.81040319 55.68632502 467.03481372 50.11749995 475.25 44.53515625 C481.17518178 40.50875029 487.09667113 36.47696099 493.015625 32.44140625 C493.91587402 31.82773193 494.81612305 31.21405762 495.74365234 30.58178711 C500.83996822 27.10626829 505.93123654 23.62356131 511.015625 20.13061523 C512.58311971 19.05699093 514.1533859 17.98740041 515.7265625 16.92211914 C519.6627627 14.25545986 523.54360367 11.54110815 527.3671875 8.71484375 C541.12689111 -1.27252373 541.12689111 -1.27252373 550.94140625 -0.42578125 C555.35610198 0.58365714 558.80468661 2.00197912 562.265625 4.94140625 C562.83539062 5.410625 563.40515625 5.87984375 563.9921875 6.36328125 C568.38270755 11.23238879 569.07779537 16.1641037 569.02652836 22.49459553 C569.03178747 23.31937184 569.03704658 24.14414814 569.04246506 24.99391767 C569.05644533 27.76369957 569.04904903 30.53300902 569.04176331 33.30281067 C569.04736725 35.30623167 569.0542692 37.30964939 569.06235927 39.31306189 C569.08073747 44.82333269 569.08030969 50.3334671 569.07677615 55.84376156 C569.07616474 61.78460054 569.09271452 67.72539546 569.10694885 73.66621399 C569.1318832 85.30711288 569.14015289 96.94797763 569.14178599 108.58889917 C569.14316454 118.04949875 569.14933915 127.51008355 569.15888786 136.97067833 C569.16158049 139.69375901 569.16424993 142.41683971 569.1669125 145.13992041 C569.16757564 145.81688337 569.16823878 146.49384633 569.16892202 147.19132332 C569.18738493 166.23337385 569.19922368 185.27541926 569.19789219 204.31747913 C569.19784545 205.03542616 569.19779872 205.75337318 569.19775056 206.49307618 C569.19750124 210.13194251 569.19720412 213.77080883 569.19689644 217.40967516 C569.19680669 218.49371595 569.19680669 218.49371595 569.19671512 219.59965656 C569.19659381 221.06111965 569.19646842 222.52258274 569.19633895 223.98404582 C569.19450061 246.72290123 569.21702152 269.46162244 569.25805664 292.20043945 C569.3041388 317.74651283 569.32995535 343.29249803 569.32716697 368.8386156 C569.32694308 371.56263936 569.32679696 374.28666311 569.32670403 377.01068687 C569.32666906 377.6814122 569.3266341 378.35213752 569.32659808 379.04318786 C569.32650576 389.83649369 569.34566252 400.62968302 569.37150082 411.42295421 C569.39693201 422.27052186 569.39938429 433.11791088 569.38017286 443.96549157 C569.37036121 449.84210051 569.37026385 455.7182872 569.3962326 461.59485626 C569.41976127 466.9745264 569.41560329 472.35343793 569.38938021 477.73308905 C569.38476039 479.6792245 569.39027978 481.62541593 569.40696044 483.57148538 C569.54748339 501.12853678 569.54748339 501.12853678 564.32988113 507.6088621 C559.50254419 512.13125138 554.69378362 514.46464745 548.078125 515.12890625 C539.26044416 514.71592626 532.58729164 509.1326032 525.640625 504.19140625 C524.18148878 503.17246185 522.72184914 502.154238 521.26171875 501.13671875 C518.35498311 499.10090178 515.46090145 497.04851188 512.57421875 494.984375 C508.47684114 492.06129937 504.3016001 489.26926926 500.1015625 486.49609375 C495.39638162 483.37751021 490.7406233 480.18576517 486.078125 477.00390625 C485.120271 476.350271 484.16241699 475.69663574 483.17553711 475.02319336 C478.02973339 471.50979784 472.88736424 467.99142042 467.74707031 464.4699707 C459.12300635 458.56239254 450.47981918 452.68340993 441.828125 446.81640625 C426.50801743 436.4270443 411.19640843 426.02559083 395.95263672 415.52441406 C388.74056889 410.56216444 381.49685842 405.64645041 374.25585938 400.7265625 C367.44185211 396.09679364 360.63268339 391.46004909 353.828125 386.81640625 C345.44158397 381.09433119 337.04310577 375.39003055 328.640625 369.69140625 C320.05183784 363.86606431 311.46581678 358.03675569 302.890625 352.19140625 C301.98940918 351.5770874 301.08819336 350.96276855 300.15966797 350.32983398 C296.29023813 347.68989236 292.42387069 345.04587939 288.5703125 342.3828125 C279.55915786 336.15577811 270.46974807 330.05585881 261.32666016 324.02368164 C255.47564534 320.14661497 249.75765527 316.13271626 244.09936523 311.97973633 C241.06176123 309.77037784 237.96799663 307.69051483 234.828125 305.62890625 C228.54087784 301.47452294 222.30146831 297.25338107 216.078125 293.00390625 C215.14734131 292.36855957 214.21655762 291.73321289 213.25756836 291.07861328 C209.43599161 288.46902697 205.61546014 285.85791444 201.79541016 283.24609375 C198.99435494 281.33123988 196.19253273 279.41751239 193.390625 277.50390625 C192.48932861 276.88725098 191.58803223 276.2705957 190.65942383 275.63525391 C186.21677021 272.60220729 181.75809678 269.59933064 177.2578125 266.65234375 C176.41508789 266.09893311 175.57236328 265.54552246 174.70410156 264.9753418 C173.11373862 263.93415405 171.51949499 262.8988628 169.92089844 261.87036133 C168.12634953 260.69504359 166.37763615 259.45020322 164.640625 258.19140625 C164.640625 257.53140625 164.640625 256.87140625 164.640625 256.19140625 C166.6340332 254.61010742 166.6340332 254.61010742 169.44140625 252.734375 C170.47185059 252.04053711 171.50229492 251.34669922 172.56396484 250.63183594 C173.69364655 249.88080169 174.82336752 249.12982651 175.953125 248.37890625 C177.10417288 247.6065307 178.254723 246.83341285 179.40478516 246.05957031 C181.72492664 244.49908766 184.04701242 242.94156849 186.37060547 241.38623047 C190.77147832 238.43238196 195.14567507 235.44072148 199.515625 232.44140625 C200.26231445 231.9309375 201.00900391 231.42046875 201.77832031 230.89453125 C205.85042206 228.11048938 209.91200063 225.31201242 213.96484375 222.5 C215.2789624 221.59169434 215.2789624 221.59169434 216.61962891 220.66503906 C218.30816014 219.49765156 219.9941504 218.32657788 221.67724609 217.15136719 C222.4295752 216.63219727 223.1819043 216.11302734 223.95703125 215.578125 C224.62162354 215.11623779 225.28621582 214.65435059 225.97094727 214.1784668 C227.640625 213.19140625 227.640625 213.19140625 229.640625 213.19140625 C230.93715496 209.30181636 231.94354782 206.14266134 230.640625 202.19140625 C227.37930509 198.89245572 223.59017317 196.59173698 219.640625 194.19140625 C218.57585937 193.52367187 217.51109375 192.8559375 216.4140625 192.16796875 C209.85590522 188.18099968 205.03845851 186.07530495 197.328125 185.94140625 C196.44511719 185.915625 195.56210937 185.88984375 194.65234375 185.86328125 C187.54134612 186.63802029 182.02779303 189.95399688 176.328125 194.06640625 C174.93134593 195.0499854 173.53419396 196.03303518 172.13671875 197.015625 C171.04399658 197.7897876 171.04399658 197.7897876 169.92919922 198.57958984 C165.9440126 201.38631078 161.91597001 204.13024155 157.890625 206.87890625 C156.67511963 207.71083496 156.67511963 207.71083496 155.43505859 208.55957031 C150.20599483 212.13527221 144.94675602 215.66214612 139.66796875 219.1640625 C135.93132775 221.6664066 132.22140467 224.20615586 128.515625 226.75390625 C127.83459717 227.22175537 127.15356934 227.68960449 126.4519043 228.17163086 C121.7492427 231.40951967 117.08639027 234.69930155 112.4609375 238.046875 C110.640625 239.19140625 110.640625 239.19140625 108.640625 239.19140625 C108.3725 239.76890625 108.104375 240.34640625 107.828125 240.94140625 C106.640625 243.19140625 106.640625 243.19140625 105.078125 245.25390625 C101.29476172 250.35322197 102.14699854 257.16057869 102.640625 263.19140625 C105.13648295 272.90458591 114.18362941 278.04401497 122.19140625 282.98046875 C126.76922668 285.85954851 131.15939968 289.01379895 135.578125 292.12890625 C141.76842232 296.48713826 147.97827854 300.79386013 154.296875 304.96484375 C161.82746767 309.95505294 169.25652254 315.09976184 176.71630859 320.19482422 C180.49839885 322.77705281 184.28273718 325.35597482 188.06713867 327.93481445 C218.70952613 348.81737526 218.70952613 348.81737526 233.640625 359.19140625 C229.10239791 364.23066903 223.69191691 367.75007727 218.078125 371.50390625 C217.0866748 372.17325195 216.09522461 372.84259766 215.07373047 373.53222656 C209.24126902 377.46519073 203.38947781 381.3692357 197.52734375 385.2578125 C192.63903743 388.53211782 187.80150218 391.88008508 182.95703125 395.21875 C162.64890677 409.21394893 142.24641402 423.07292115 121.83459473 436.91625977 C113.14706482 442.80836437 104.46775129 448.71230831 95.796875 454.62890625 C88.9162406 459.32345329 82.02943779 464.0088697 75.140625 468.69140625 C65.45276436 475.27700789 55.77057489 481.87085049 46.09375 488.47265625 C42.27257678 491.07939114 38.44936779 493.68311051 34.625 496.28515625 C33.63395264 496.95981934 32.64290527 497.63448242 31.62182617 498.32958984 C29.73439681 499.61439956 27.84656587 500.89861961 25.95825195 502.18212891 C22.1939669 504.74548343 18.44574668 507.31840103 14.76171875 509.99609375 C8.08937589 514.68928109 2.77956503 515.1162858 -5.359375 514.19140625 C-11.24495713 512.17643785 -14.42000651 508.33661102 -17.44921875 503.05859375 C-19.52857287 498.79279431 -19.50470008 494.92337238 -19.4991827 490.2885952 C-19.50213412 489.47065717 -19.50508555 488.65271914 -19.50812641 487.80999511 C-19.51684779 485.04555144 -19.51840081 482.28114945 -19.52000427 479.51669312 C-19.52473317 477.52411379 -19.5298838 475.53153543 -19.53542191 473.53895819 C-19.54935534 468.04475224 -19.55691931 462.55055292 -19.5633949 457.05633378 C-19.56975814 452.34844988 -19.57982931 447.64057693 -19.58995556 442.93269984 C-19.623307 427.41999368 -19.64484612 411.90727823 -19.66315541 396.39454836 C-19.66792302 392.35659654 -19.67293173 388.31864503 -19.67796063 384.28069353 C-19.70900641 359.21847798 -19.73562565 334.15625978 -19.75237942 309.09403038 C-19.75631669 303.28680796 -19.76032853 297.4795856 -19.7644043 291.67236328 C-19.76490596 290.95088491 -19.76540763 290.22940654 -19.7659245 289.48606518 C-19.78234255 266.09409456 -19.82079903 242.70222854 -19.8716914 219.31030938 C-19.92391093 195.26457115 -19.95669365 171.21888863 -19.96395695 147.17309254 C-19.96498555 143.77692068 -19.96622187 140.38074892 -19.96757698 136.98457718 C-19.96783502 136.31617865 -19.96809306 135.64778013 -19.96835891 134.9591271 C-19.97276336 124.86806364 -19.9940437 114.7771241 -20.0243206 104.68610764 C-20.05857904 93.20675308 -20.0725768 81.72760286 -20.05989646 70.2482001 C-20.05405994 64.3898277 -20.05800403 58.5318877 -20.0880661 52.67358017 C-20.11536284 47.31046169 -20.11497904 41.94808418 -20.09255565 36.58494969 C-20.08932451 34.64477348 -20.0962487 32.70454824 -20.11435287 30.76445381 C-20.26806247 13.22949058 -20.26806247 13.22949058 -14.89041287 6.72097838 C-14.38517037 6.21621958 -13.87992787 5.71146077 -13.359375 5.19140625 C-12.534375 4.36640625 -11.709375 3.54140625 -10.859375 2.69140625 C-7.23106135 0.51441806 -4.15224261 0.33685412 0 0 Z " fill="#00AED9" transform="translate(685.359375,74.80859375)"/>
<path d="M0 0 C1.57988611 1.24915311 3.14354253 2.5192023 4.6875 3.8125 C6.35302976 5.14725322 8.01939411 6.48096769 9.6875 7.8125 C10.23535156 7.3278125 10.78320312 6.843125 11.34765625 6.34375 C29.65700289 -9.13732359 49.07119425 -12.94454969 72.6875 -11.1875 C88.3192503 -9.39198383 101.82043204 -0.13094226 111.6875 11.8125 C120.95243707 24.49255496 125.81269987 38.01565242 125.86450195 53.69189453 C125.87107315 54.56416687 125.87764435 55.43643921 125.88441467 56.33514404 C125.90403651 59.20520119 125.91578016 62.0752065 125.92578125 64.9453125 C125.92985678 65.92774807 125.9339323 66.91018364 125.93813133 67.92238998 C125.95893617 73.11411068 125.9732667 78.30580532 125.98266602 83.49755859 C125.99376955 88.86229737 126.0282305 94.22662585 126.06783772 99.59121895 C126.09393622 103.71756783 126.1023514 107.84381738 126.10594749 111.97024155 C126.11082437 113.94863559 126.12246955 115.92702488 126.14098549 117.90533829 C126.16525184 120.6678606 126.16443596 123.42929899 126.1574707 126.19189453 C126.17668579 127.41853317 126.17668579 127.41853317 126.19628906 128.66995239 C126.16343504 132.23791331 125.99616289 134.38345095 123.88433838 137.31893921 C120.65158033 139.51678895 117.52146826 139.38531063 113.74609375 139.34375 C112.59996361 139.34949036 112.59996361 139.34949036 111.43067932 139.35534668 C109.81941404 139.35806283 108.20810445 139.35072224 106.59692383 139.33398438 C104.12937415 139.31253802 101.66472586 139.33380801 99.19726562 139.359375 C97.63020191 139.35673224 96.06313999 139.35160834 94.49609375 139.34375 C93.75854355 139.35184692 93.02099335 139.35994385 92.26109314 139.36828613 C87.18921175 139.27528065 87.18921175 139.27528065 84.99342346 137.24987793 C83.22443223 133.94822947 83.27089591 130.95016303 83.30273438 127.296875 C83.2973616 126.54503433 83.29198883 125.79319366 83.28645325 125.01856995 C83.27668097 123.38770108 83.27372945 121.75678025 83.27680969 120.12588501 C83.28129861 117.53443821 83.26725316 114.94367057 83.24841309 112.35229492 C83.21163288 106.83904116 83.1979431 101.32585831 83.1875 95.8125 C83.17537598 89.44739148 83.15350755 83.0826128 83.10749817 76.71765137 C83.09405783 74.18305019 83.09807715 71.64887984 83.10290527 69.11425781 C83.06216012 56.72663439 82.43941853 44.46837256 73.6875 34.8125 C71.38557419 32.96447505 69.45334154 32.05236 66.6875 30.8125 C66.09324219 30.51601563 65.49898437 30.21953125 64.88671875 29.9140625 C57.46438185 26.56402224 49.13261394 26.64167864 41.5 29.3125 C35.89091838 31.83567911 29.49893524 36.18962953 26.6875 41.8125 C26.61501643 44.68545385 26.60387878 47.53328162 26.63745117 50.40551758 C26.64686989 51.7399012 26.64686989 51.7399012 26.65647888 53.10124207 C26.67035125 55.03722947 26.68629189 56.97320288 26.70403099 58.90915871 C26.73060675 61.97294041 26.74851551 65.03665057 26.76350403 68.10050964 C26.80631831 76.81331394 26.85392743 85.52597634 26.93432617 94.23852539 C26.98283761 99.56410156 27.0118425 104.8894779 27.02807045 110.2152462 C27.03797547 112.24586512 27.05519683 114.27646198 27.07985497 116.30695534 C27.11358994 119.14865082 27.12248614 121.98942798 27.12573242 124.83129883 C27.14168457 125.6704483 27.15763672 126.50959778 27.17407227 127.37417603 C27.15346586 131.32965821 26.95621882 133.36205976 24.8853302 136.83338928 C21.74896466 139.65763596 18.80323785 139.53214385 14.78125 139.4765625 C13.63867737 139.48373795 13.63867737 139.48373795 12.47302246 139.49105835 C10.86594573 139.49445393 9.25879962 139.48527503 7.65185547 139.46435547 C5.19471955 139.43757868 2.74215045 139.46410805 0.28515625 139.49609375 C-1.27865589 139.49278958 -2.8424652 139.48638319 -4.40625 139.4765625 C-5.13863892 139.48668365 -5.87102783 139.49680481 -6.62561035 139.50723267 C-10.13073654 139.4268799 -11.91534991 139.18584474 -14.50558472 136.75086975 C-16.72409469 133.14317289 -16.87427645 130.25937521 -16.82666016 126.15161133 C-16.83378525 125.39641205 -16.84091034 124.64121277 -16.84825134 123.86312866 C-16.86750437 121.37332853 -16.85925501 118.88438099 -16.8515625 116.39453125 C-16.86147561 114.65442167 -16.87341919 112.91432258 -16.88729858 111.17424011 C-16.91966167 106.59300283 -16.9300508 102.01200439 -16.93414307 97.43066406 C-16.94289418 90.11664295 -16.97869302 82.80281847 -17.0263176 75.48895836 C-17.03880688 72.94656757 -17.03815232 70.40442972 -17.03604126 67.86201477 C-17.0696749 54.23865718 -17.67613993 43.66098119 -27.5625 33.5 C-35.45949674 28.65411564 -43.01343035 26.41025934 -52.3125 27.8125 C-60.34474819 30.43574869 -67.6217759 35.77641384 -72.3125 42.8125 C-72.50576349 45.78664293 -72.58223276 48.66813425 -72.56787109 51.64257812 C-72.57330177 52.99663002 -72.57330177 52.99663002 -72.57884216 54.3780365 C-72.58573859 56.33908578 -72.58824114 58.30015426 -72.58689499 60.26121521 C-72.58593169 63.36246795 -72.59884783 66.46337225 -72.61587524 69.5645752 C-72.6622142 78.38205273 -72.68676672 87.19949478 -72.69335938 96.01708984 C-72.69836321 101.40880801 -72.72255425 106.80016214 -72.75868607 112.1917572 C-72.76850918 114.24907754 -72.77080241 116.3064478 -72.76551437 118.36378479 C-72.75847449 121.23706207 -72.77566166 124.10924785 -72.79833984 126.98242188 C-72.79016739 127.8365416 -72.78199493 128.69066132 -72.77357483 129.57066345 C-72.85427554 135.29827562 -72.85427554 135.29827562 -75.11842346 137.83912659 C-78.43448696 139.31025487 -81.69123324 139.26031313 -85.25390625 139.24609375 C-86.01799301 139.2513356 -86.78207977 139.25657745 -87.56932068 139.26197815 C-89.18056017 139.26838776 -90.79184651 139.26707506 -92.40307617 139.25854492 C-94.87047189 139.25001565 -97.33556618 139.27883773 -99.80273438 139.31054688 C-101.36979097 139.31215855 -102.93685167 139.311582 -104.50390625 139.30859375 C-105.24145645 139.31982773 -105.97900665 139.33106171 -106.73890686 139.34263611 C-111.84701039 139.27294495 -111.84701039 139.27294495 -114.00639439 137.13696289 C-115.62052673 134.26430795 -115.69225978 132.40750492 -115.70018005 129.11938477 C-115.71008469 127.95851349 -115.71998932 126.79764221 -115.73019409 125.60159302 C-115.72569244 124.33185638 -115.7211908 123.06211975 -115.71655273 121.75390625 C-115.72225633 120.40021196 -115.72922056 119.04652247 -115.73735046 117.69284058 C-115.75529708 114.01930298 -115.75411091 110.34600404 -115.74840808 106.67243576 C-115.74531879 103.6056995 -115.75140567 100.53900926 -115.75744683 97.47227955 C-115.77149497 90.23831673 -115.76992801 83.00447201 -115.75854492 75.77050781 C-115.74705922 68.30635924 -115.76114607 60.84256977 -115.7879414 53.37846851 C-115.81008663 46.96986007 -115.81673858 40.56136445 -115.81086498 34.15272045 C-115.80749184 30.325125 -115.80993406 26.49775983 -115.82711601 22.67019653 C-115.8425649 19.07166513 -115.83865324 15.47366659 -115.81981087 11.8751564 C-115.81435845 9.92456489 -115.82865413 7.97394957 -115.84350586 6.02340698 C-115.83367172 4.86253571 -115.82383759 3.70166443 -115.81370544 2.50561523 C-115.81349616 1.49683823 -115.81328688 0.48806122 -115.81307125 -0.55128479 C-115.16917185 -3.94232532 -114.04205406 -5.12646354 -111.3125 -7.1875 C-108.28344023 -7.53640086 -105.62946713 -7.65504756 -102.609375 -7.578125 C-101.77158508 -7.57246521 -100.93379517 -7.56680542 -100.07061768 -7.56097412 C-97.40065834 -7.53862329 -94.73205213 -7.48843098 -92.0625 -7.4375 C-90.25001941 -7.41743325 -88.43751774 -7.39918278 -86.625 -7.3828125 C-82.18698041 -7.33876294 -77.74996944 -7.26974566 -73.3125 -7.1875 C-73.3125 -4.5475 -73.3125 -1.9075 -73.3125 0.8125 C-72.34763672 0.01585937 -72.34763672 0.01585937 -71.36328125 -0.796875 C-50.40743972 -17.17890233 -21.18903755 -14.99834929 0 0 Z " fill="#2C3786" transform="translate(556.3125,862.1875)"/>
<path d="M0 0 C0 -2.64 0 -5.28 0 -8 C5.32014516 -8.12383064 10.63944714 -8.21444676 15.96069336 -8.2746582 C17.76976132 -8.2997639 19.57872822 -8.33385595 21.38745117 -8.37719727 C23.99162751 -8.43802579 26.59446031 -8.46624809 29.19921875 -8.48828125 C30.00461594 -8.51408768 30.81001312 -8.5398941 31.63981628 -8.56648254 C32.4002272 -8.5668602 33.16063812 -8.56723785 33.9440918 -8.56762695 C34.60805466 -8.57873001 35.27201752 -8.58983307 35.95610046 -8.60127258 C39.60812229 -7.52692399 40.80749883 -6.14142103 43 -3 C43.7536822 1.31871184 43.67215559 5.59832994 43.63110352 9.97265625 C43.64183647 11.95143265 43.64183647 11.95143265 43.65278625 13.97018433 C43.67128469 17.58193571 43.65837241 21.19294791 43.63869596 24.80466843 C43.62229481 28.58731681 43.63112438 32.36991891 43.63621521 36.15258789 C43.64073456 42.50451446 43.62487644 48.8561464 43.59692383 55.20800781 C43.56487239 62.54778627 43.56488802 69.88703338 43.5821386 77.22684956 C43.59801193 84.29248518 43.59126502 91.35792633 43.57420158 98.42355347 C43.56733562 101.42826526 43.56835878 104.43282095 43.57574654 107.43753052 C43.58484239 111.6344343 43.56085665 115.83051974 43.53344727 120.02734375 C43.54323608 121.896147 43.54323608 121.896147 43.55322266 123.80270386 C43.53413597 125.51866257 43.53413597 125.51866257 43.5146637 127.26928711 C43.51185678 128.26109482 43.50904985 129.25290253 43.50615788 130.27476501 C42.85878963 133.76029924 41.4295546 135.46703538 39 138 C37.03839111 138.60127258 37.03839111 138.60127258 34.96582031 138.56762695 C33.79505951 138.56706047 33.79505951 138.56706047 32.60064697 138.56648254 C31.76821472 138.54067612 30.93578247 138.51486969 30.078125 138.48828125 C28.78814606 138.47766914 28.78814606 138.47766914 27.47210693 138.46684265 C24.7305125 138.43889611 21.990975 138.3761598 19.25 138.3125 C17.38935245 138.28741734 15.52867283 138.26460411 13.66796875 138.24414062 C9.11118894 138.18906887 4.55594296 138.10279655 0 138 C-0.495 134.535 -0.495 134.535 -1 131 C-1.94101562 131.48210937 -2.88203125 131.96421875 -3.8515625 132.4609375 C-5.10926522 133.0991747 -6.36708392 133.7371834 -7.625 134.375 C-8.24246094 134.69210937 -8.85992188 135.00921875 -9.49609375 135.3359375 C-24.49881963 142.91626215 -45.78449316 143.79594345 -61.9375 139.15625 C-77.06068253 133.446477 -91.23420041 125.03070708 -100 111 C-100.50917969 110.22011719 -101.01835938 109.44023438 -101.54296875 108.63671875 C-106.99961588 99.97344935 -110.29176811 90.83243425 -113 81 C-113.25801392 80.10390015 -113.25801392 80.10390015 -113.52124023 79.18969727 C-117.85823071 59.35366078 -112.65158493 38.79056291 -102 22 C-90.69019923 5.45845465 -74.41255582 -6.51903204 -54.56640625 -10.53125 C-34.73678297 -13.13755317 -17.30508382 -9.80543781 0 0 Z " fill="#2D3887" transform="translate(809,863)"/>
<path d="M0 0 C0.9178125 -0.0103125 1.835625 -0.020625 2.78125 -0.03125 C6.41487066 0.67876783 7.92729718 1.83375266 10.5 4.5 C11.00082487 7.30692071 11.1730436 9.51291386 11.12818909 12.3190918 C11.13528347 13.11189639 11.14237786 13.90470098 11.14968723 14.72152996 C11.16730624 17.38125097 11.14914346 20.03951811 11.13110352 22.69921875 C11.13624086 24.60463121 11.14352074 26.51003893 11.15278625 28.41543579 C11.171332 33.59316662 11.1583416 38.77038383 11.13869596 43.94809341 C11.12233437 49.36213042 11.13111888 54.77613425 11.13621521 60.19018555 C11.14073895 69.2827985 11.12484889 78.37520592 11.09692383 87.46777344 C11.06487073 97.9856695 11.06488679 108.50319482 11.0821386 119.02111721 C11.09799273 129.13177078 11.09127728 139.24228819 11.07420158 149.35293579 C11.0673222 153.65910457 11.06837264 157.96516451 11.07574654 162.27133179 C11.08339779 167.34067376 11.0713211 172.40959293 11.04389763 177.47886276 C11.03700054 179.34128947 11.03692995 181.20375556 11.04411316 183.06618118 C11.05277773 185.60489816 11.03690369 188.14230131 11.0146637 190.6809082 C11.02290446 191.42137233 11.03114523 192.16183645 11.03963572 192.92473888 C10.98431652 196.33609946 10.73130162 198.19112648 8.66119289 200.95549011 C5.69824477 203.07297934 3.61242868 203.03314155 0 203 C-1.1240625 203.0103125 -2.248125 203.020625 -3.40625 203.03125 C-7.14185206 202.38978298 -8.31171431 201.56359997 -10.5 198.5 C-11.109375 195.921875 -11.109375 195.921875 -11.25 193.25 C-11.30671875 192.35796875 -11.3634375 191.4659375 -11.421875 190.546875 C-11.44765625 189.87140625 -11.4734375 189.1959375 -11.5 188.5 C-12.345625 189.325 -13.19125 190.15 -14.0625 191 C-29.5097908 204.06364072 -48.74810395 208.05272464 -68.5 206.5 C-88.96783854 204.70709193 -104.9042864 194.40809297 -118.3125 179.15625 C-121.1124304 175.75633451 -123.45530927 172.39676567 -125.5 168.5 C-125.91765625 167.73945312 -126.3353125 166.97890625 -126.765625 166.1953125 C-135.81747696 148.25519627 -137.00776437 127.61437331 -131.19335938 108.53417969 C-128.02249913 99.23150098 -123.07574398 90.79778646 -116.5 83.5 C-115.69820312 82.60539063 -114.89640625 81.71078125 -114.0703125 80.7890625 C-105.22073318 71.42646409 -94.87101832 64.39799914 -82.5 60.5 C-81.79488281 60.27570312 -81.08976562 60.05140625 -80.36328125 59.8203125 C-61.97737237 55.13559575 -38.89214571 57.96859276 -22.51953125 67.42578125 C-19.86750843 69.24754595 -17.34481924 71.14903281 -14.8112793 73.12963867 C-14.00321335 73.76060959 -13.1951474 74.39158051 -12.3625946 75.04167175 C-11.74793839 75.52292007 -11.13328217 76.0041684 -10.5 76.5 C-10.51110306 75.60686096 -10.52220612 74.71372192 -10.53364563 73.79351807 C-10.6338238 65.37721364 -10.70995275 56.96110938 -10.75906086 48.54434586 C-10.78515685 44.21713075 -10.82055402 39.89040818 -10.87719727 35.56347656 C-10.93151838 31.38780629 -10.96142052 27.21260979 -10.97438622 23.03661346 C-10.98362606 21.44334198 -11.00166978 19.85009649 -11.02865028 18.25702667 C-11.06494492 16.02527316 -11.06994562 13.79547764 -11.06762695 11.56347656 C-11.07873001 10.29328674 -11.08983307 9.02309692 -11.10127258 7.7144165 C-10.5 4.5 -10.5 4.5 -8.13444519 2.09173584 C-5.1532978 0.290522 -3.45774349 -0.03885105 0 0 Z " fill="#2E3988" transform="translate(1219.5,798.5)"/>
<path d="M0 0 C1.07242699 -0.00786278 1.07242699 -0.00786278 2.16651917 -0.0158844 C3.67520858 -0.02229341 5.18394804 -0.02098206 6.69262695 -0.01245117 C8.99326163 -0.0039456 11.29140764 -0.03270495 13.59179688 -0.06445312 C15.06119718 -0.06606553 16.53060185 -0.06548685 18 -0.0625 C19.02522011 -0.07935097 19.02522011 -0.07935097 20.07115173 -0.09654236 C24.89241814 -0.02668089 27.19988945 1.02844573 30.56640625 4.43359375 C31.2056427 7.23040771 31.2056427 7.23040771 31.22583008 10.48730469 C31.24547318 11.70826843 31.26511627 12.92923218 31.28535461 14.18719482 C31.28142197 15.50085022 31.27748932 16.81450562 31.2734375 18.16796875 C31.28655638 19.52990935 31.30186121 20.8918305 31.31925964 22.25372314 C31.35910206 25.83109809 31.36929942 29.40796402 31.37329102 32.98553467 C31.38262415 36.63895095 31.42003862 40.29206833 31.45507812 43.9453125 C31.51964581 51.10807545 31.5528923 58.27053322 31.56640625 65.43359375 C32.25352188 65.01619431 32.94063751 64.59879486 33.64857483 64.16874695 C34.54966476 63.62410294 35.4507547 63.07945892 36.37915039 62.51831055 C37.27251602 61.9771611 38.16588165 61.43601166 39.08631897 60.87846375 C41.66580237 59.37568673 44.17836658 58.20903767 47.00390625 57.24609375 C47.80699219 56.96378906 48.61007813 56.68148437 49.4375 56.390625 C50.47003906 56.07480469 51.50257813 55.75898437 52.56640625 55.43359375 C53.34234131 55.17989014 54.11827637 54.92618652 54.91772461 54.66479492 C62.12975339 52.46399611 68.74270384 52.00735658 76.25390625 52.12109375 C77.32962891 52.11787109 78.40535156 52.11464844 79.51367188 52.11132812 C85.55721012 52.15203781 90.78143225 52.68584798 96.56640625 54.43359375 C97.35789062 54.645 98.149375 54.85640625 98.96484375 55.07421875 C114.65486615 59.91145886 126.64580457 71.42260948 134.59863281 85.50683594 C136.21107426 88.71707507 137.2369163 92.05925634 138.25390625 95.49609375 C138.46595703 96.17736328 138.67800781 96.85863281 138.89648438 97.56054688 C141.02316312 104.54437203 141.71920239 110.98025296 141.7434082 118.22119141 C141.7499794 119.08371017 141.7565506 119.94622894 141.76332092 120.83488464 C141.78294066 123.67247618 141.7946859 126.51001531 141.8046875 129.34765625 C141.80876303 130.31905926 141.81283855 131.29046227 141.81703758 132.29130173 C141.83784147 137.4246677 141.85217243 142.55800733 141.86157227 147.69140625 C141.87267597 152.99561298 141.90713735 158.29940474 141.94674397 163.60346413 C141.97284322 167.68348995 141.98125771 171.76341533 141.98485374 175.8435173 C141.98973038 177.79958298 142.00137488 179.75564385 142.01989174 181.71162796 C142.04415987 184.44302105 142.04334192 187.17331797 142.03637695 189.90478516 C142.05559204 191.11739769 142.05559204 191.11739769 142.07519531 192.35450745 C142.04215229 195.90295462 141.86625696 198.01774791 139.76324463 200.93429565 C136.53174035 203.13973246 133.40282211 203.00643132 129.625 202.96484375 C128.47886986 202.97058411 128.47886986 202.97058411 127.30958557 202.97644043 C125.69832029 202.97915658 124.0870107 202.97181599 122.47583008 202.95507812 C120.0082804 202.93363177 117.54363211 202.95490176 115.07617188 202.98046875 C113.50910816 202.97782599 111.94204624 202.97270209 110.375 202.96484375 C109.6374498 202.97294067 108.8998996 202.9810376 108.13999939 202.98937988 C103.07256577 202.89645597 103.07256577 202.89645597 100.87232971 200.88442993 C99.07884707 197.51858785 99.150189 194.42327954 99.18164062 190.70263672 C99.17626785 189.92807632 99.17089508 189.15351593 99.1653595 188.35548401 C99.15558678 186.67550015 99.15263583 184.99546585 99.15571594 183.31545639 C99.16020138 180.6489544 99.14617044 177.98311361 99.12731934 175.31668091 C99.09053702 169.6473294 99.07684237 163.97804697 99.06640625 158.30859375 C99.05429656 151.75669239 99.0325296 145.20511238 98.98640442 138.65335464 C98.97292306 136.04000157 98.97699037 133.42706387 98.98181152 130.81369019 C98.94027947 117.98041471 97.63774949 106.92089836 88.44140625 97.18359375 C79.01704117 91.4470237 69.19988318 89.67780016 58.390625 92.1640625 C51.98522941 94.15811831 46.19810001 96.81448149 40.56640625 100.43359375 C39.78884476 100.86387878 39.01128326 101.29416382 38.2101593 101.73748779 C34.79915212 104.05278934 32.12619622 106.25441211 31.06283188 110.39393616 C30.24848743 116.48674988 30.48940776 122.63142574 30.609375 128.76171875 C30.61388274 130.75851949 30.61383782 132.75533522 30.60945129 134.75213623 C30.60749249 139.99226608 30.65567094 145.23062133 30.71801758 150.47033691 C30.81183032 158.86976861 30.83970711 167.26931784 30.84765053 175.66921234 C30.85923484 178.6012445 30.89862745 181.53195864 30.94120789 184.46368408 C30.95147827 186.25736027 30.96094673 188.05104128 30.96948242 189.84472656 C30.98865219 190.65934357 31.00782196 191.47396057 31.02757263 192.31326294 C31.02326898 195.88017941 30.87654557 198.00166152 28.76742554 200.93904114 C25.52911815 203.13794089 22.4034866 202.98739782 18.625 202.9296875 C17.47886986 202.93187035 17.47886986 202.93187035 16.30958557 202.93409729 C14.69829485 202.93244082 13.0869879 202.92090758 11.47583008 202.90014648 C9.00859525 202.87114886 6.54350441 202.87954947 4.07617188 202.89257812 C2.50910414 202.88634161 0.94204318 202.87795134 -0.625 202.8671875 C-1.3625502 202.87012314 -2.1001004 202.87305878 -2.86000061 202.87608337 C-7.86260066 202.78379881 -7.86260066 202.78379881 -10.12748814 201.39468384 C-12.15684224 198.34765137 -11.84956607 195.19138868 -11.8212738 191.65209961 C-11.82935211 190.45086535 -11.82935211 190.45086535 -11.83759362 189.22536373 C-11.85193971 186.5329002 -11.84475324 183.84092371 -11.83764648 181.1484375 C-11.84334654 179.22184858 -11.85030938 177.29526304 -11.85844421 175.36868286 C-11.87642997 170.1291083 -11.87519721 164.88970071 -11.86950183 159.65010452 C-11.86641812 155.28101735 -11.87249321 150.91196263 -11.87854058 146.54288006 C-11.89260168 136.23917139 -11.89101103 125.9355456 -11.87963867 115.63183594 C-11.86815246 104.98956048 -11.88223805 94.34753688 -11.90903515 83.70529461 C-11.93115942 74.57828078 -11.93783703 65.4513462 -11.93195873 56.32430744 C-11.92858051 50.86863998 -11.93106157 45.41313402 -11.94820976 39.95748901 C-11.963625 34.82910267 -11.95978387 29.70109083 -11.94090462 24.57271957 C-11.93720381 22.68728586 -11.94037031 20.80182472 -11.95079041 18.91641617 C-11.96390047 16.34886889 -11.95254284 13.78257984 -11.93479919 11.21508789 C-11.9492067 10.08732642 -11.9492067 10.08732642 -11.96390527 8.93678188 C-11.91749152 5.68844194 -11.87115725 3.90544827 -9.61502171 1.47250366 C-6.45820898 -0.03093541 -3.4268786 -0.01467544 0 0 Z " fill="#2C3786" transform="translate(99.43359375,798.56640625)"/>
<path d="M0 0 C5.34568412 3.56378941 10.04308276 7.82637197 14.625 12.3125 C15.17929687 12.83070313 15.73359375 13.34890625 16.3046875 13.8828125 C19.98668907 17.68423034 22.37842061 22.2212219 24.8125 26.875 C25.14588379 27.49318604 25.47926758 28.11137207 25.82275391 28.74829102 C32.3441913 41.80921709 32.08742606 56.00860024 32.05859375 70.2265625 C32.06316394 72.21479469 32.06847198 74.2030253 32.07447815 76.19125366 C32.08335131 80.3279265 32.081047 84.46440558 32.07104492 88.60107422 C32.05947387 93.90286972 32.07991962 99.20400717 32.10896206 104.50571632 C32.12727876 108.59777049 32.12704218 112.68966487 32.12132454 116.78174973 C32.12117124 118.73779611 32.12722259 120.69385326 32.13961601 122.64986038 C32.15446438 125.37328438 32.14390037 128.09546318 32.12670898 130.81884766 C32.14121094 132.02663376 32.14121094 132.02663376 32.15600586 133.25881958 C32.10914825 136.79686905 31.91900791 138.90556315 29.81985474 141.81100464 C26.5902994 144.02033644 23.46154068 143.88533894 19.68359375 143.84375 C18.53746361 143.84949036 18.53746361 143.84949036 17.36817932 143.85534668 C15.75691404 143.85806283 14.14560445 143.85072224 12.53442383 143.83398438 C10.06687415 143.81253802 7.60222586 143.83380801 5.13476562 143.859375 C3.56770191 143.85673224 2.00063999 143.85160834 0.43359375 143.84375 C-0.30395645 143.85184692 -1.04150665 143.85994385 -1.80140686 143.86828613 C-6.86850957 143.77536828 -6.86850957 143.77536828 -9.06907654 141.764328 C-10.86434606 138.393769 -10.79119118 135.29126213 -10.75976562 131.56567383 C-10.7651384 130.78950714 -10.77051117 130.01334045 -10.77604675 129.21365356 C-10.78581908 127.53039347 -10.78877054 125.84708302 -10.78569031 124.16379738 C-10.78120607 121.49336964 -10.79523183 118.82360253 -10.81408691 116.15324402 C-10.85086852 110.47717352 -10.86456674 104.80117209 -10.875 99.125 C-10.88710367 92.56230624 -10.90882636 85.9999337 -10.95500183 79.43738365 C-10.96850079 76.81789153 -10.96441294 74.19881276 -10.95959473 71.57929993 C-10.98562302 63.66366542 -11.13696477 56.67823358 -14.375 49.3125 C-14.68522095 48.57735672 -14.99544189 47.84221344 -15.31506348 47.08479309 C-18.30089113 40.16369515 -22.66550194 36.82230352 -29.5 34 C-38.23224609 31.09715021 -46.51229266 31.14630245 -54.92578125 34.98046875 C-61.4992316 38.55550315 -68.47395299 42.71351284 -72.375 49.3125 C-73.0630923 52.28396507 -73.02664014 55.15242909 -72.97094727 58.19189453 C-72.9750058 59.06416687 -72.97906433 59.93643921 -72.98324585 60.83514404 C-72.98874881 62.72084696 -72.98279481 64.60661107 -72.96658516 66.49225235 C-72.94113856 69.47670746 -72.94597087 72.45978342 -72.95848083 75.44430542 C-72.97920776 81.77552264 -72.9595432 88.10631104 -72.9375 94.4375 C-72.91640179 101.78189814 -72.91179166 109.12585298 -72.93800163 116.47024155 C-72.94136688 119.41090598 -72.92012859 122.35072613 -72.89759827 125.29129028 C-72.900109 127.09149358 -72.90366849 128.89169583 -72.90844727 130.69189453 C-72.89556168 131.50965363 -72.88267609 132.32741272 -72.86940002 133.16995239 C-72.90104569 136.73866873 -73.06533063 138.88240788 -75.17893982 141.81794739 C-78.40000409 144.01007767 -81.51629865 143.90440318 -85.28125 143.87890625 C-86.04296509 143.88510483 -86.80468018 143.89130341 -87.58947754 143.89768982 C-89.19652023 143.90477923 -90.80363649 143.90162918 -92.41064453 143.88891602 C-94.86758629 143.87504186 -97.32072322 143.90913462 -99.77734375 143.94726562 C-101.34114676 143.94821682 -102.90495454 143.94635798 -104.46875 143.94140625 C-105.20113892 143.95466446 -105.93352783 143.96792267 -106.68811035 143.98158264 C-110.28472434 143.91601772 -111.97694748 143.70833868 -114.56847382 141.13122559 C-116.61619471 137.93616353 -116.8772256 136.33630399 -116.88293457 132.58178711 C-116.89421387 131.43781464 -116.90549316 130.29384216 -116.91711426 129.11520386 C-116.90901733 127.86933502 -116.90092041 126.62346619 -116.89257812 125.33984375 C-116.90309204 123.36106735 -116.90309204 123.36106735 -116.91381836 121.34231567 C-116.9320296 117.73067097 -116.92499364 114.11948412 -116.91230202 110.50783157 C-116.90216279 106.72517936 -116.91157025 102.94256589 -116.91784668 99.15991211 C-116.92512043 92.808034 -116.91554266 86.45634203 -116.89648438 80.10449219 C-116.87471599 72.76472653 -116.88176757 65.42540533 -116.90379 58.08565044 C-116.92195189 51.77975254 -116.92449851 45.47398831 -116.91403532 39.1680727 C-116.90780467 35.40363087 -116.90695279 31.63939784 -116.92018127 27.87496948 C-116.93389967 23.67809804 -116.91487734 19.48199077 -116.89257812 15.28515625 C-116.90067505 14.03928741 -116.90877197 12.79341858 -116.91711426 11.50979614 C-116.90583496 10.36582367 -116.89455566 9.2218512 -116.88293457 8.04321289 C-116.88142647 7.05140518 -116.87991837 6.05959747 -116.87836456 5.03773499 C-116.23427035 1.55058431 -114.80537073 -0.15419418 -112.375 -2.6875 C-110.41339111 -3.28877258 -110.41339111 -3.28877258 -108.34082031 -3.25512695 C-107.56031311 -3.2547493 -106.77980591 -3.25437164 -105.97564697 -3.25398254 C-105.14321472 -3.22817612 -104.31078247 -3.20236969 -103.453125 -3.17578125 C-102.59313904 -3.16870651 -101.73315308 -3.16163177 -100.84710693 -3.15434265 C-98.1055125 -3.12639611 -95.365975 -3.0636598 -92.625 -3 C-90.76435245 -2.97491734 -88.90367283 -2.95210411 -87.04296875 -2.93164062 C-82.48618894 -2.87656887 -77.93094296 -2.79029655 -73.375 -2.6875 C-72.88 1.7675 -72.88 1.7675 -72.375 6.3125 C-71.85292969 5.93738281 -71.33085938 5.56226563 -70.79296875 5.17578125 C-50.48809669 -8.94161666 -22.25644766 -12.33034677 0 0 Z " fill="#2C3787" transform="translate(993.375,857.6875)"/>
<path d="M0 0 C0.73714737 -0.00857025 1.47429474 -0.0171405 2.23377991 -0.02597046 C3.78951925 -0.03743219 5.34536575 -0.03847564 6.90112305 -0.02978516 C9.27514416 -0.02346416 11.64417369 -0.07038103 14.01757812 -0.12109375 C15.53254582 -0.12564047 17.04752686 -0.12704638 18.5625 -0.125 C19.62053078 -0.15262924 19.62053078 -0.15262924 20.69993591 -0.18081665 C24.61953359 -0.10765595 26.15938882 0.42430432 29.03897095 3.13549805 C31.8752271 6.78155234 32.02068925 10.31184155 31.91186523 14.80322266 C31.91313416 16.00457352 31.91313416 16.00457352 31.91442871 17.23019409 C31.9132579 18.96204372 31.90076002 20.69391531 31.87811089 22.42561722 C31.84328878 25.17706843 31.84067739 27.92691082 31.84645081 30.67855835 C31.85473506 37.51531797 31.813427 44.35155373 31.7635498 51.18811035 C31.72219306 56.96347278 31.70492826 62.73787853 31.7209034 68.51337814 C31.7187967 71.20593268 31.68180173 73.89652857 31.6436615 76.58877563 C31.60215815 87.33657611 32.68051099 96.17065905 40.12059021 104.61343384 C46.1792173 110.47753718 52.66253255 111.7816786 60.84765625 111.9765625 C72.60917943 111.69708076 81.07051609 107.14571653 89.28515625 98.7265625 C90.10306641 97.83324219 90.10306641 97.83324219 90.9375 96.921875 C92.34765625 95.6015625 92.34765625 95.6015625 94.34765625 95.6015625 C94.3387738 94.45564133 94.32989136 93.30972015 94.32073975 92.1290741 C94.23974162 81.34312972 94.17973303 70.55724684 94.14040756 59.77106762 C94.11951039 54.22542356 94.09115371 48.68002451 94.04589844 43.13452148 C94.00251693 37.7853027 93.9785352 32.43631995 93.96814728 27.08693886 C93.96074208 25.04351394 93.94628187 23.00010231 93.92473602 20.95677757 C93.89580443 18.10004886 93.89169596 15.24430221 93.89355469 12.38745117 C93.87917358 11.53796906 93.86479248 10.68848694 93.84997559 9.81326294 C93.89026273 4.11141507 93.89026273 4.11141507 96.1632843 1.57769775 C99.3314437 0.16193517 102.37357059 0.15337553 105.78125 0.16796875 C106.85367699 0.16010597 106.85367699 0.16010597 107.94776917 0.15208435 C109.45645858 0.14567534 110.96519804 0.14698669 112.47387695 0.15551758 C114.77451163 0.16402315 117.07265764 0.1352638 119.37304688 0.10351562 C120.84244718 0.10190322 122.31185185 0.1024819 123.78125 0.10546875 C124.80647011 0.08861778 124.80647011 0.08861778 125.85240173 0.07142639 C130.67325543 0.14128188 132.96892111 1.21402278 136.34765625 4.6015625 C136.97406864 7.23777771 136.97406864 7.23777771 136.97584534 10.29467773 C136.9884993 11.45554901 137.00115326 12.61642029 137.01419067 13.81246948 C137.00249847 15.08220612 136.99080627 16.35194275 136.97875977 17.66015625 C136.98389907 19.01385435 136.99118045 20.36754576 137.0004425 21.72122192 C137.01896404 25.39494202 137.00601403 29.06793679 136.98635221 32.74162674 C136.96997017 36.58614196 136.97877796 40.43061107 136.98387146 44.27514648 C136.98839295 50.73140046 136.97251944 57.18736476 136.94458008 63.64355469 C136.91252768 71.10772957 136.91254357 78.57138201 136.92979485 86.03559399 C136.94565894 93.21602619 136.93892721 100.39626685 136.92185783 107.57669067 C136.91498537 110.63246764 136.9160217 113.68809116 136.92340279 116.74386597 C136.9310644 120.34244464 136.91894464 123.94042881 136.89155388 127.5389061 C136.88138251 129.48946519 136.8908539 131.44009566 136.90087891 133.39065552 C136.88179222 135.13196243 136.88179222 135.13196243 136.86231995 136.90844727 C136.85951303 137.91722427 136.8567061 138.92600128 136.85381413 139.96534729 C136.21185992 143.30882866 134.97016677 144.50117466 132.34765625 146.6015625 C130.38604736 147.08258057 130.38604736 147.08258057 128.31347656 147.05566406 C127.53296936 147.05536194 126.75246216 147.05505981 125.94830322 147.05474854 C124.69965485 147.02378082 124.69965485 147.02378082 123.42578125 146.9921875 C122.56579529 146.98652771 121.70580933 146.98086792 120.81976318 146.97503662 C118.07848976 146.95268201 115.33853321 146.90248852 112.59765625 146.8515625 C110.73699807 146.83149626 108.87631936 146.81324571 107.015625 146.796875 C102.45912959 146.75282034 97.90361603 146.68380004 93.34765625 146.6015625 C93.01765625 143.9615625 92.68765625 141.3215625 92.34765625 138.6015625 C91.42984375 139.14425781 90.51203125 139.68695312 89.56640625 140.24609375 C76.80979601 147.71469258 66.6769159 150.78366575 51.72265625 150.8515625 C50.05396484 150.8825 50.05396484 150.8825 48.3515625 150.9140625 C32.615022 150.98734092 19.95709733 146.22851202 8.34765625 135.6015625 C-9.88047045 116.19450223 -11.79576983 95.37705885 -11.890625 70.07421875 C-11.89470053 69.15153135 -11.89877605 68.22884396 -11.90297508 67.27819633 C-11.92369217 62.41064565 -11.93806511 57.5431221 -11.94750977 52.67553711 C-11.95865224 47.65283723 -11.99318168 42.63057087 -12.03268147 37.60802555 C-12.0587702 33.73474791 -12.06719379 29.86157609 -12.07079124 25.98821831 C-12.07566323 24.13542123 -12.08729462 22.28262906 -12.10582924 20.42991829 C-12.13009597 17.84753122 -12.12928102 15.26630329 -12.12231445 12.68383789 C-12.13512451 11.92068771 -12.14793457 11.15753754 -12.16113281 10.3712616 C-12.12706754 6.91359968 -11.91100086 4.95448023 -9.84146118 2.13075256 C-6.6958947 -0.06655715 -3.70629122 -0.0095506 0 0 Z " fill="#2D3887" transform="translate(278.65234375,854.3984375)"/>
<path d="M0 0 C0.8549707 -0.00241699 1.70994141 -0.00483398 2.59082031 -0.00732422 C18.89572482 0.41810332 32.05991371 8.65399973 43.015625 20.14453125 C46.46874813 24.10283351 47.38513043 26.23551066 47.51074219 31.41992188 C47.54286804 32.62547729 47.5749939 33.83103271 47.60809326 35.07312012 C47.69726164 40.60667942 47.78005313 46.13971981 47.82519531 51.67382812 C47.85176915 54.58658017 47.90724706 57.49649329 47.98925781 60.40820312 C48.08869185 63.93933336 48.13752709 67.46791164 48.15164948 71.00038147 C48.17137412 72.98095557 48.23969417 74.96085752 48.30926514 76.94030762 C48.2754343 84.24513745 47.2694028 88.22958174 42.34082031 93.75976562 C37.98544912 98.03566109 33.45021649 101.58986203 28.125 104.5625 C27.3103125 105.02398438 26.495625 105.48546875 25.65625 105.9609375 C16.98364292 110.5916814 8.8894275 111.90263318 -0.875 111.8125 C-2.13183594 111.82410156 -2.13183594 111.82410156 -3.4140625 111.8359375 C-17.64176315 111.79188889 -28.29495391 106.70836669 -38.59375 96.8984375 C-51.11925714 84.07266135 -55.16464515 70.18268763 -55.19189453 52.60229492 C-54.97915186 37.44897603 -48.47884564 25.70068081 -38.203125 14.8125 C-27.71431363 4.67566217 -14.39274165 0.03837382 0 0 Z " fill="#FDFDFE" transform="translate(1161.875,874.4375)"/>
<path d="M0 0 C0.80308594 0.28746094 1.60617187 0.57492187 2.43359375 0.87109375 C9.89356289 3.65029794 15.94346274 8.97386064 22 14 C22.68320313 14.56589844 23.36640625 15.13179687 24.0703125 15.71484375 C36.56623595 27.13553657 43.96551267 44.30653258 45 61 C45.02519779 63.43477798 45.03196105 65.86979405 45.0234375 68.3046875 C45.02005371 69.56007324 45.01666992 70.81545898 45.01318359 72.10888672 C45.00883301 73.0629541 45.00448242 74.01702148 45 75 C33.07383939 75.09262344 21.14776414 75.16372623 9.22131729 75.20724869 C3.68354857 75.22813586 -1.85397433 75.25647443 -7.39160156 75.30175781 C-12.73434113 75.3451748 -18.07684405 75.36912859 -23.4197464 75.37950897 C-25.4595538 75.38690777 -27.49934804 75.40135568 -29.53905487 75.42292023 C-32.39318473 75.45189887 -35.24633297 75.4559583 -38.10058594 75.45410156 C-38.94647278 75.46848267 -39.79235962 75.48286377 -40.66387939 75.49768066 C-46.40097896 75.45721593 -46.40097896 75.45721593 -49.49371338 73.09661865 C-52.23409777 69.28224432 -52.40614214 66.71124882 -52 62 C-50.41619873 59.80181885 -50.41619873 59.80181885 -48 58 C-44.82354736 57.51898193 -44.82354736 57.51898193 -41.02832031 57.54589844 C-40.3352327 57.54531433 -39.64214508 57.54473022 -38.92805481 57.54412842 C-36.64422985 57.54690831 -34.36172103 57.57799293 -32.078125 57.609375 C-30.49201165 57.6168378 -28.90588906 57.62253055 -27.31976318 57.62652588 C-23.15039497 57.64177935 -18.98158644 57.68105813 -14.81243896 57.7253418 C-10.55602591 57.76630102 -6.29952219 57.78453825 -2.04296875 57.8046875 C6.304944 57.84755317 14.65240233 57.9158004 23 58 C22.23935948 55.7854219 21.4714181 53.57382854 20.69921875 51.36328125 C20.27213623 50.13134033 19.84505371 48.89939941 19.4050293 47.63012695 C14.23977886 34.28484308 3.91963962 24.05244379 -9 18 C-21.36313119 13.2142718 -37.6834162 12.91271539 -50 18 C-64.77963111 24.73657219 -73.48586452 34.73155722 -80.0546875 49.45703125 C-84.8634075 62.39288547 -83.26383028 80.43626852 -77.74609375 92.8125 C-72.4798345 103.14412577 -66.05423537 111.15451432 -56 117 C-55.195625 117.556875 -54.39125 118.11375 -53.5625 118.6875 C-46.12461702 122.49714738 -38.518209 123.55853081 -30.25 123.5 C-29.28989014 123.49355469 -28.32978027 123.48710938 -27.34057617 123.48046875 C-11.84095775 123.08474489 -0.8610932 116.43431955 10.3125 106 C12.8144987 103.7731702 13.77133215 103.05030693 17.125 102.3125 C22.09054626 103.49991324 25.18791154 105.78186731 28 110 C28.54844705 114.11335286 28.08719112 116.94461951 25.56640625 120.30859375 C12.65878902 134.24624527 -4.27023432 142.52916801 -23.15234375 143.33984375 C-25.35130359 143.38673058 -27.55061585 143.41927621 -29.75 143.4375 C-30.77907471 143.4478125 -31.80814941 143.458125 -32.8684082 143.46875 C-50.2321812 143.26883129 -65.23307732 136.61933412 -78 125 C-78.91652344 124.17628906 -79.83304688 123.35257813 -80.77734375 122.50390625 C-94.74725906 109.30051579 -103.81753869 91.48623936 -105.203125 72.16796875 C-105.5469531 50.30623214 -98.72051674 31.33000054 -83.47265625 15.3515625 C-62.06269966 -5.10615786 -27.39270844 -12.64562449 0 0 Z " fill="#2E3988" transform="translate(1512,862)"/>
<path d="M0 0 C7.79056414 6.83423741 16.96033072 17.03857719 18.19140625 27.77734375 C17.9342442 30.25974476 17.21343126 32.16002096 15.8046875 34.21484375 C12.95186426 36.27388981 10.47113912 36.03336137 7 36.0625 C5.16115234 36.10890625 5.16115234 36.10890625 3.28515625 36.15625 C-0.0625 35.5625 -0.0625 35.5625 -2.421875 33.23828125 C-4.0625 30.5625 -4.0625 30.5625 -5.375 27.25 C-9.6597205 16.71004583 -19.83198907 10.81658255 -29.7265625 6.32421875 C-43.23389478 1.91965388 -59.05008304 3.9084388 -71.625 10.0625 C-84.87147939 17.83427837 -92.24435879 29.34982281 -96.45166016 43.80786133 C-97.52556966 48.65075538 -97.55048577 53.43212735 -97.5 58.375 C-97.49097656 59.43235352 -97.48195313 60.48970703 -97.47265625 61.57910156 C-97.13008255 77.04725563 -91.82463524 88.49431156 -81.25 99.9375 C-69.97008995 110.53444675 -56.32300361 113.30365168 -41.37109375 112.83984375 C-29.1183022 112.19804354 -19.12077199 107.18958476 -10.6875 98.25 C-7.41613446 94.34849437 -5.14547758 90.26537648 -3.0703125 85.62890625 C-2.0625 83.5625 -2.0625 83.5625 -0.0625 81.5625 C5.82993117 80.7988152 11.16895842 80.48172459 16.3125 83.625 C18.45109673 87.49092485 17.84641665 89.28789198 16.9375 93.5625 C10.03731642 110.2584799 -2.28468053 121.15435591 -18.59765625 128.2734375 C-35.03436164 134.38855901 -53.30733025 134.35925299 -70.0625 129.5625 C-71.15884766 129.25505859 -71.15884766 129.25505859 -72.27734375 128.94140625 C-89.05564407 123.41726238 -103.18167567 110.19856622 -111.3125 94.75 C-120.0720874 76.2283656 -122.90326332 52.24109583 -116.0625 32.5625 C-112.32910449 23.43269169 -107.71552853 14.90219432 -101.0625 7.5625 C-100.52109375 6.95277344 -99.9796875 6.34304688 -99.421875 5.71484375 C-73.67317743 -21.65818755 -28.90446653 -22.57790751 0 0 Z " fill="#2E3988" transform="translate(1694.0625,872.4375)"/>
<path d="M0 0 C1.37671875 -0.00193359 1.37671875 -0.00193359 2.78125 -0.00390625 C6.3228912 0.73393567 7.92850543 2.03428139 10.5 4.5625 C11.10127258 7.24542236 11.10127258 7.24542236 11.06762695 10.34082031 C11.0672493 11.5017218 11.06687164 12.66262329 11.06648254 13.85870361 C11.04067612 15.10673767 11.01486969 16.35477173 10.98828125 17.640625 C10.98120651 18.92233582 10.97413177 20.20404663 10.96684265 21.52459717 C10.94779234 24.92481616 10.89871189 28.32395958 10.84332275 31.72375488 C10.79208578 35.19589691 10.76931933 38.66821353 10.74414062 42.140625 C10.69058875 48.94835726 10.60530171 55.75537693 10.5 62.5625 C11.42961296 62.55250725 11.42961296 62.55250725 12.37800598 62.54231262 C18.8177879 62.47603491 25.25747322 62.43073091 31.69750977 62.39770508 C34.10217218 62.38260184 36.50680698 62.36211792 38.91137695 62.33618164 C42.36416431 62.29986649 45.81658804 62.282789 49.26953125 62.26953125 C50.34773636 62.25404739 51.42594147 62.23856354 52.53681946 62.22261047 C53.53763046 62.22238388 54.53844147 62.22215729 55.56958008 62.22192383 C56.89195427 62.21193108 56.89195427 62.21193108 58.24104309 62.20173645 C60.98448645 62.63987423 61.86148649 63.35291806 63.5 65.5625 C63.8984375 68.15625 63.8984375 68.15625 63.875 71.0625 C63.88660156 72.50109375 63.88660156 72.50109375 63.8984375 73.96875 C63.42923782 77.02314789 62.92093515 77.71728451 60.5 79.5625 C58.24104309 79.92326355 58.24104309 79.92326355 55.56958008 79.90307617 C54.06836357 79.90273628 54.06836357 79.90273628 52.53681946 79.90238953 C51.45861435 79.88690567 50.38040924 79.87142181 49.26953125 79.85546875 C48.16397385 79.85122391 47.05841644 79.84697906 45.9193573 79.84260559 C42.38349188 79.82579437 38.84819355 79.78813685 35.3125 79.75 C32.91732593 79.73495636 30.52214294 79.7212674 28.12695312 79.70898438 C22.25110815 79.67588285 16.37559458 79.62565893 10.5 79.5625 C10.58464544 89.82062025 10.67962133 100.07858908 10.78752708 110.33649254 C10.83732128 115.10043847 10.8836519 119.86436403 10.921875 124.62841797 C10.95894214 129.23211141 11.00535822 133.83562701 11.05806351 138.43916702 C11.07649424 140.18925459 11.09164325 141.93938011 11.10334396 143.6895256 C11.1659444 161.34295297 11.1659444 161.34295297 17.5 177.5625 C18.03625 178.47 18.5725 179.3775 19.125 180.3125 C26.0392779 186.86286854 34.54983524 186.95696951 43.55859375 186.71875 C44.9974795 186.66903174 46.43628461 186.61692562 47.875 186.5625 C50.73691735 186.45582103 53.59777838 186.37619069 56.4609375 186.3125 C57.71696777 186.26609375 58.97299805 186.2196875 60.26708984 186.171875 C63.5 186.5625 63.5 186.5625 65.90673828 188.42578125 C68.34174545 191.69136242 68.06446762 194.27314766 67.8671875 198.21875 C67.5 200.5625 67.5 200.5625 66.125 203.0625 C58.00194836 207.70424379 47.61175428 206.92850919 38.5625 206.9375 C37.26892578 206.96199219 35.97535156 206.98648438 34.64257812 207.01171875 C22.2211001 207.04945489 12.57401284 204.28205921 3.5 195.5625 C-2.55481394 188.69677348 -6.80577805 181.2996793 -8.72558594 172.35595703 C-8.89431087 171.57658846 -9.06303581 170.79721989 -9.23687363 169.99423409 C-11.03065129 160.96432706 -11.0042594 152.03706505 -10.890625 142.8671875 C-10.88313807 141.05445998 -10.8774568 139.2417242 -10.87347412 137.4289856 C-10.85841024 132.72390248 -10.8193019 128.01933607 -10.7746582 123.31445312 C-10.7332828 118.48705021 -10.71537411 113.65956145 -10.6953125 108.83203125 C-10.65278289 99.40863071 -10.58477424 89.98560879 -10.5 80.5625 C-11.26666992 80.58868408 -12.03333984 80.61486816 -12.82324219 80.6418457 C-16.29861949 80.74581223 -19.77366983 80.81082724 -23.25 80.875 C-24.4565625 80.91689453 -25.663125 80.95878906 -26.90625 81.00195312 C-28.06640625 81.01806641 -29.2265625 81.03417969 -30.421875 81.05078125 C-31.49018555 81.07696533 -32.55849609 81.10314941 -33.65917969 81.13012695 C-36.5 80.5625 -36.5 80.5625 -38.84448242 78.19042969 C-40.63664307 75.345596 -41.06764395 73.82813766 -41.0625 70.5 C-41.08441406 69.66339844 -41.10632812 68.82679688 -41.12890625 67.96484375 C-40.21758134 64.48369581 -38.4591707 63.5202347 -35.5 61.5625 C-32.63745117 61.10839844 -32.63745117 61.10839844 -29.54296875 61.171875 C-28.43115234 61.18476562 -27.31933594 61.19765625 -26.17382812 61.2109375 C-24.4480957 61.26121094 -24.4480957 61.26121094 -22.6875 61.3125 C-21.51767578 61.33054687 -20.34785156 61.34859375 -19.14257812 61.3671875 C-16.2608822 61.4142356 -13.38086203 61.47996291 -10.5 61.5625 C-10.51110306 60.87203079 -10.52220612 60.18156158 -10.53364563 59.47016907 C-10.64425947 52.28403661 -10.7196765 45.09814594 -10.7746582 37.91137695 C-10.79697994 35.22911546 -10.83176794 32.5474458 -10.87719727 29.86547852 C-10.93784525 26.01040745 -10.96621127 22.1562423 -10.98828125 18.30078125 C-11.01408768 17.10165604 -11.0398941 15.90253082 -11.06648254 14.66706848 C-11.06960706 5.39429399 -11.06960706 5.39429399 -8.1394043 2.30566406 C-5.14341349 0.32699656 -3.56467809 -0.0851117 0 0 Z " fill="#2E3988" transform="translate(1764.5,798.4375)"/>
<path d="M0 0 C4.0252361 3.56291117 6.47666297 6.16919356 7.00448608 11.64372253 C7.04336927 13.58726626 7.03750943 15.53208079 6.99325562 17.47550964 C6.99616608 18.5129985 6.99907654 19.55048737 7.0020752 20.61941528 C6.99877009 22.80211172 6.9757904 24.98485788 6.93417358 27.16716003 C6.8761548 30.49787686 6.89298841 33.82223682 6.91903687 37.15324402 C6.90656247 39.28152998 6.88978082 41.40979597 6.86825562 43.53800964 C6.87412689 44.52672562 6.87999817 45.51544159 6.88604736 46.53411865 C6.72361657 52.5185552 5.74687895 55.81121044 1.49479675 60.10775757 C-8.05430466 68.62676989 -18.0562696 71.00006338 -30.70596313 70.65519714 C-41.55203523 69.94756492 -48.70689439 66.14864499 -56.24893188 58.25285339 C-64.83257965 48.12723298 -67.08566068 36.53537428 -66.2640686 23.55363464 C-65.03590045 13.76447855 -59.3525258 4.80127744 -51.99893188 -1.55964661 C-35.99692071 -13.52884075 -15.51319416 -12.10401455 0 0 Z " fill="#FCFCFD" transform="translate(802.9989318847656,897.5596466064453)"/>
<path d="M0 0 C2.15625 1.90234375 2.15625 1.90234375 2.75 4.8984375 C2.7190625 6.03410156 2.688125 7.16976562 2.65625 8.33984375 C2.6459375 9.47292969 2.635625 10.60601563 2.625 11.7734375 C2.11799026 15.15772752 1.65573056 16.58841415 -0.84375 18.90234375 C-3.2265625 19.625 -3.2265625 19.625 -5.96875 19.96484375 C-23.04673125 22.55241667 -37.09587722 31.41680527 -47.84375 44.90234375 C-48.36530167 45.4289711 -48.88685333 45.95559845 -49.42420959 46.4981842 C-51.50606863 50.02405867 -51.25056356 53.46839946 -51.21264648 57.44702148 C-51.21641296 58.30764191 -51.22017944 59.16826233 -51.22406006 60.05496216 C-51.23049043 61.92158863 -51.23016446 63.78824785 -51.22387505 65.6548748 C-51.21477015 68.6098254 -51.22498174 71.56414074 -51.24049377 74.51905823 C-51.28061153 82.91935227 -51.28179485 91.31959682 -51.27954102 99.7199707 C-51.27948993 104.85996366 -51.2986499 109.99961394 -51.32887459 115.13951302 C-51.33970835 118.04956725 -51.32756424 120.95896989 -51.31504822 123.8690033 C-51.32395242 125.6554326 -51.33402673 127.44185657 -51.34545898 129.22827148 C-51.33571548 130.03622665 -51.32597198 130.84418182 -51.31593323 131.67662048 C-51.36363376 135.41180787 -51.71143104 137.68425977 -53.66566467 140.90516663 C-56.72579889 143.71113111 -58.81435403 143.53799016 -62.90625 143.46484375 C-64.13472656 143.46613281 -65.36320312 143.46742188 -66.62890625 143.46875 C-69.84375 142.90234375 -69.84375 142.90234375 -71.52044773 141.21089935 C-73.13441118 138.39527328 -73.22334001 136.63489051 -73.23143005 133.39904785 C-73.24133469 132.28024734 -73.25123932 131.16144684 -73.26144409 130.00874329 C-73.25694244 128.78576035 -73.2524408 127.5627774 -73.24780273 126.30273438 C-73.25466599 125.01135056 -73.26152924 123.71996674 -73.26860046 122.38945007 C-73.28654396 118.85020306 -73.28536152 115.31120381 -73.27965808 111.77192497 C-73.27656835 108.81702783 -73.28265617 105.86217843 -73.28869683 102.90728807 C-73.30274394 95.93701235 -73.30117887 88.96685919 -73.28979492 81.99658203 C-73.27830925 74.80508619 -73.2923962 67.61396308 -73.3191914 60.42251635 C-73.34133831 54.24745064 -73.34798821 48.07250203 -73.34211498 41.89739943 C-73.33874224 38.20952904 -73.34118134 34.52189767 -73.35836601 30.83406067 C-73.3766864 26.7231174 -73.36265866 22.61290113 -73.34545898 18.50195312 C-73.35512695 17.27897018 -73.36479492 16.05598724 -73.37475586 14.79594421 C-73.36492172 13.67714371 -73.35508759 12.5583432 -73.34495544 11.40563965 C-73.34474616 10.43373436 -73.34453688 9.46182907 -73.34432125 8.46047211 C-72.69827628 5.15891222 -71.44593273 3.96846409 -68.84375 1.90234375 C-66.2578125 1.3359375 -66.2578125 1.3359375 -63.46875 1.33984375 C-62.55351563 1.31792969 -61.63828125 1.29601562 -60.6953125 1.2734375 C-56.82892158 2.12616207 -54.15573204 3.71853019 -51.84375 6.90234375 C-51.00990039 9.85026428 -50.95852215 12.66438693 -50.96875 15.71484375 C-50.948125 16.50310547 -50.9275 17.29136719 -50.90625 18.10351562 C-50.85940183 20.03600283 -50.84801251 21.96929347 -50.84375 23.90234375 C-50.47765625 23.42925781 -50.1115625 22.95617187 -49.734375 22.46875 C-39.70554513 10.21925066 -17.02635987 -6.57198781 0 0 Z " fill="#2E3988" transform="translate(1404.84375,858.09765625)"/>
<path d="M0 0 C1.35931641 -0.00580078 1.35931641 -0.00580078 2.74609375 -0.01171875 C6.63617328 0.95405689 9.28450969 2.40200291 11.5625 5.6875 C12.47082552 9.84818176 12.3612373 13.95703158 12.30712891 18.20117188 C12.31443024 19.47158829 12.32173157 20.7420047 12.32925415 22.05091858 C12.34803585 25.52852596 12.32925529 29.00500395 12.30258989 32.48252296 C12.2799221 36.12502795 12.28817887 39.7674789 12.29208374 43.41003418 C12.29384851 49.5266358 12.27171344 55.64279361 12.23486328 61.75927734 C12.19252891 68.82641634 12.18550859 75.89290535 12.1979872 82.96014547 C12.20938506 89.76417194 12.19807099 96.56796997 12.17564011 103.3719635 C12.16636189 106.26502211 12.16459436 109.15794071 12.1688118 112.05101013 C12.17328612 116.0922945 12.14433184 120.13267224 12.11181641 124.17382812 C12.11924866 125.97250084 12.11924866 125.97250084 12.12683105 127.80751038 C12.0231462 135.87057365 12.0231462 135.87057365 9.73519897 139.92810059 C6.6597561 142.41852032 4.47777419 142.35397536 0.5625 142.3125 C-1.2628125 142.33183594 -1.2628125 142.33183594 -3.125 142.3515625 C-6.4375 141.6875 -6.4375 141.6875 -8.6111908 139.92137146 C-11.45867129 134.8792976 -11.0022317 129.97757826 -10.97094727 124.28149414 C-10.97956284 123.02243759 -10.98817841 121.76338104 -10.99705505 120.46617126 C-11.01952758 117.01975528 -11.01661452 113.57379898 -11.00773358 110.12733769 C-11.0026175 107.24712533 -11.00992131 104.36699888 -11.01720566 101.48679537 C-11.03419806 94.69042041 -11.03064587 87.89427001 -11.01391602 81.09790039 C-10.99699601 74.0932179 -11.0128284 67.08915866 -11.0451389 60.08454424 C-11.07185515 54.0639705 -11.07910536 48.04359052 -11.07062382 42.02296346 C-11.06570031 38.4300096 -11.06787826 34.83743064 -11.08841133 31.244524 C-11.11021859 27.23692184 -11.09134731 23.23049727 -11.06860352 19.22290039 C-11.08029572 18.03673126 -11.09198792 16.85056213 -11.10403442 15.62844849 C-11.00041999 6.66338802 -11.00041999 6.66338802 -8.06578064 2.9516449 C-5.09827563 0.39527355 -3.86697749 -0.10421641 0 0 Z " fill="#333D8A" transform="translate(1280.4375,859.3125)"/>
<path d="M0 0 C3.93685839 2.06937428 6.98494712 4.30699021 9.140625 8.2734375 C9.95857601 13.30763083 9.71014784 17.11329838 7.453125 21.7109375 C4.3752518 25.12155375 1.79454403 27.00951425 -2.796875 27.7421875 C-11.0907892 27.82681928 -11.0907892 27.82681928 -14.984375 25.0234375 C-18.83698084 19.37294894 -19.72193577 15.09844961 -18.859375 8.2734375 C-17.04703963 4.43965114 -15.55910973 2.73992732 -12.046875 0.3984375 C-7.80608654 -1.09831137 -4.29850119 -1.67966643 0 0 Z " fill="#303A88" transform="translate(1285.859375,799.7265625)"/>
<path d="M0 0 C1.46373047 0.06767578 1.46373047 0.06767578 2.95703125 0.13671875 C3.69308594 0.19472656 4.42914062 0.25273438 5.1875 0.3125 C5.1875 0.6425 5.1875 0.9725 5.1875 1.3125 C4.51203125 1.33828125 3.8365625 1.3640625 3.140625 1.390625 C1.80257813 1.47570312 1.80257813 1.47570312 0.4375 1.5625 C-0.44421875 1.60890625 -1.3259375 1.6553125 -2.234375 1.703125 C-5.56316061 2.48992887 -6.66827231 3.67272492 -8.8125 6.3125 C-9.42430445 8.92404889 -9.42430445 8.92404889 -9.35839844 11.81542969 C-9.37811707 12.91626892 -9.39783569 14.01710815 -9.41815186 15.15130615 C-9.41938049 16.33371887 -9.42060913 17.51613159 -9.421875 18.734375 C-9.43841125 19.94949768 -9.45494751 21.16462036 -9.47198486 22.41656494 C-9.52057963 26.29859413 -9.5418624 30.18023123 -9.5625 34.0625 C-9.5906499 36.69403026 -9.62057593 39.32554217 -9.65234375 41.95703125 C-9.72634196 48.40878272 -9.77791722 54.8604234 -9.8125 61.3125 C-10.1425 61.3125 -10.4725 61.3125 -10.8125 61.3125 C-10.93927079 53.42896695 -11.02683995 45.54569669 -11.0871582 37.66137695 C-11.10947994 34.97911546 -11.14426794 32.2974458 -11.18969727 29.61547852 C-11.25034525 25.76040745 -11.27871127 21.9062423 -11.30078125 18.05078125 C-11.32658768 16.85165604 -11.3523941 15.65253082 -11.37898254 14.41706848 C-11.38210721 5.1438599 -11.38210721 5.1438599 -8.46289062 2.046875 C-5.33848102 0.00230924 -3.69602084 -0.22265186 0 0 Z " fill="#6C74AB" transform="translate(1764.8125,798.6875)"/>
<path d="M0 0 C0.33 0 0.66 0 1 0 C1.33 5.61 1.66 11.22 2 17 C3.03125 15.783125 4.0625 14.56625 5.125 13.3125 C8.18609843 9.80252359 11.33361083 6.86157204 15 4 C15.66 4.33 16.32 4.66 17 5 C14.74141867 7.34546698 12.46623352 9.67412027 10.1875 12 C9.54490234 12.66773438 8.90230469 13.33546875 8.24023438 14.0234375 C7.30727539 14.97089844 7.30727539 14.97089844 6.35546875 15.9375 C5.78465576 16.52402344 5.21384277 17.11054687 4.62573242 17.71484375 C3 19 3 19 0 19 C0 12.73 0 6.46 0 0 Z " fill="#5F68A4" transform="translate(1352,865)"/>
<path d="M0 0 C1.49080078 0.02707031 1.49080078 0.02707031 3.01171875 0.0546875 C3.77097656 0.07789063 4.53023437 0.10109375 5.3125 0.125 C5.3125 0.455 5.3125 0.785 5.3125 1.125 C4.64863281 1.15078125 3.98476562 1.1765625 3.30078125 1.203125 C-2.23191741 1.55851002 -5.65316075 1.95618278 -9.6875 6.125 C-9.375 4.25 -9.375 4.25 -8.6875 2.125 C-5.26655758 -0.15562828 -4.00562778 -0.09425007 0 0 Z " fill="#5961A0" transform="translate(1764.6875,798.875)"/>
</svg>
