<?xml version="1.0" encoding="UTF-8"?>
<svg version="1.1" xmlns="http://www.w3.org/2000/svg" width="321" height="173">
<path d="M0 0 C0.87914062 0.02707031 1.75828125 0.05414062 2.6640625 0.08203125 C4.81877601 0.15229365 6.97221593 0.25990065 9.125 0.375 C9.30091619 3.56178936 9.40636778 6.7473164 9.5 9.9375 C9.55027344 10.83275391 9.60054688 11.72800781 9.65234375 12.65039062 C9.75802396 17.45884032 9.44741328 20.68975425 6.4765625 24.58984375 C4.84619141 26.24975586 4.84619141 26.24975586 3.125 27.375 C-0.25 27.3125 -0.25 27.3125 -2.875 26.375 C-2.71837891 27.93347656 -2.71837891 27.93347656 -2.55859375 29.5234375 C-1.79228126 40.57265607 -1.79228126 40.57265607 -4.80859375 45.59375 C-7.05431693 48.03709682 -9.33709506 50.24022797 -11.875 52.375 C-12.865 53.365 -12.865 53.365 -13.875 54.375 C-16.92883879 54.34192593 -19.84370896 53.80804158 -22.875 53.375 C-22.875 56.675 -22.875 59.975 -22.875 63.375 C-13.635 63.375 -4.395 63.375 5.125 63.375 C5.33343436 67.75469481 5.51175587 72.11682355 5.61938477 76.49755859 C5.66427154 77.98187901 5.72541266 79.46581004 5.80395508 80.94873047 C6.44003395 93.27951434 6.44003395 93.27951434 3.11669922 98.57519531 C0.89784329 101.01870655 -1.39857243 103.19900507 -3.875 105.375 C-4.205 106.035 -4.535 106.695 -4.875 107.375 C-15.435 107.375 -25.995 107.375 -36.875 107.375 C-37.205 106.055 -37.535 104.735 -37.875 103.375 C-38.27879883 104.19444092 -38.68259766 105.01388184 -39.09863281 105.8581543 C-43.59583308 109.93497786 -48.45985047 108.87990637 -54.296875 108.64453125 C-55.51199768 108.61526047 -56.72712036 108.58598969 -57.97906494 108.55583191 C-61.86211822 108.45682282 -65.74305074 108.32259318 -69.625 108.1875 C-72.2564468 108.11421552 -74.88795853 108.0432235 -77.51953125 107.97460938 C-83.97234336 107.80133894 -90.42376536 107.59913785 -96.875 107.375 C-97.00189674 99.65219691 -97.08939284 91.92966321 -97.1496582 84.20605469 C-97.17478429 81.57932488 -97.20889085 78.95266486 -97.25219727 76.32617188 C-97.31292806 72.5480018 -97.34123015 68.77075704 -97.36328125 64.9921875 C-97.38908768 63.82009735 -97.4148941 62.6480072 -97.44148254 61.44039917 C-97.44460646 52.33565091 -97.44460646 52.33565091 -94.47070312 48.69140625 C-91.3766565 45.93027811 -88.32263423 43.67342282 -84.875 41.375 C-86.195 41.045 -87.515 40.715 -88.875 40.375 C-89.13826588 36.20954875 -89.29682084 32.0462488 -89.4375 27.875 C-89.51291016 26.70195313 -89.58832031 25.52890625 -89.66601562 24.3203125 C-89.78596067 19.57581942 -89.79406289 15.88991704 -87.29077148 11.76367188 C-83.10979084 7.45214019 -79.50572151 5.91219131 -73.52734375 5.59375 C-71.28755368 5.63883302 -69.04878339 5.74185107 -66.8125 5.875 C-62.873125 6.04 -58.93375 6.205 -54.875 6.375 C-54.875 14.955 -54.875 23.535 -54.875 32.375 C-50.915 32.705 -46.955 33.035 -42.875 33.375 C-43.060625 31.89 -43.24625 30.405 -43.4375 28.875 C-43.47869542 25.24980304 -43.24932683 23.82656888 -40.90625 21 C-39.29056729 19.60928577 -37.6356356 18.26262155 -35.94140625 16.96875 C-33.77440603 15.53641493 -33.77440603 15.53641493 -32.875 13.375 C-27.925 13.375 -22.975 13.375 -17.875 13.375 C-17.215 11.065 -16.555 8.755 -15.875 6.375 C-12.0540323 -0.15295534 -7.01639734 -0.41210767 0 0 Z " fill="#54B2DB" transform="translate(277.875,16.625)"/>
<path d="M0 0 C1.4075354 -0.0098568 1.4075354 -0.0098568 2.84350586 -0.01991272 C5.95776442 -0.03967016 9.07197473 -0.05131344 12.1862793 -0.0612793 C13.24836294 -0.06535482 14.31044659 -0.06943035 15.40471458 -0.07362938 C21.02550437 -0.09450002 26.64626967 -0.10879775 32.26708984 -0.11816406 C38.07799142 -0.1292338 43.88851062 -0.16363761 49.69927692 -0.20333576 C54.16280336 -0.229458 58.62623806 -0.23785198 63.08983421 -0.24144554 C65.23207369 -0.24632244 67.37430877 -0.25796764 69.51647377 -0.27648354 C72.51389654 -0.3007824 75.51032178 -0.29992679 78.5078125 -0.29296875 C79.39371567 -0.30577881 80.27961884 -0.31858887 81.19236755 -0.33178711 C85.30605991 -0.2969587 87.42294351 -0.14734834 90.99856567 2.06147766 C93.31209531 4.57212036 93.57983719 5.64987673 93.5769043 9.02075195 C93.57883789 9.93727539 93.58077148 10.85379883 93.58276367 11.7980957 C93.55891602 12.74813477 93.53506836 13.69817383 93.51049805 14.67700195 C93.52145508 15.62704102 93.53241211 16.57708008 93.54370117 17.5559082 C93.47161097 24.39005927 93.47161097 24.39005927 91.53971863 27.29351807 C87.54673533 30.19534311 83.76259443 29.7033857 78.94702148 29.63110352 C77.42458832 29.63197968 77.42458832 29.63197968 75.87139893 29.63287354 C72.51637583 29.63008666 69.16224096 29.59896508 65.80737305 29.56762695 C63.48138922 29.56016674 61.1553991 29.55447277 58.82940674 29.55047607 C52.70705822 29.5352026 46.58508919 29.49590549 40.46289062 29.45166016 C34.21579116 29.41074471 27.96863038 29.39247299 21.72143555 29.37231445 C9.4634563 29.32941334 -2.79424127 29.26114086 -15.05200195 29.17700195 C-15.16848816 25.4480994 -15.23934771 21.71966682 -15.30200195 17.98950195 C-15.33551758 16.9344043 -15.3690332 15.87930664 -15.40356445 14.79223633 C-15.50272077 6.93409783 -15.50272077 6.93409783 -13.16137695 3.0012207 C-9.07186685 -0.53544822 -5.17468381 0.01559933 0 0 Z " fill="#09558F" transform="translate(228.052001953125,143.822998046875)"/>
<path d="M0 0 C17.82 0 35.64 0 54 0 C54 17.82 54 35.64 54 54 C36.18 54 18.36 54 0 54 C0 36.18 0 18.36 0 0 Z " fill="#00538D" transform="translate(181,70)"/>
<path d="M0 0 C0.33 9.24 0.66 18.48 1 28 C10.24 28 19.48 28 29 28 C29.20843436 32.37969481 29.38675587 36.74182355 29.49438477 41.12255859 C29.53927154 42.60687901 29.60041266 44.09081004 29.67895508 45.57373047 C30.31503395 57.90451434 30.31503395 57.90451434 26.99169922 63.20019531 C24.77284329 65.64370655 22.47642757 67.82400507 20 70 C19.67 70.66 19.34 71.32 19 72 C8.44 72 -2.12 72 -13 72 C-13.33 70.68 -13.66 69.36 -14 68 C-15.32 69.65 -16.64 71.3 -18 73 C-18.43571582 65.33815495 -18.73055924 57.67955394 -18.93383789 50.00805664 C-19.01865969 47.40690849 -19.13417967 44.80655452 -19.2824707 42.20825195 C-20.5467412 19.46450697 -20.5467412 19.46450697 -14.17529297 11.39013672 C-3.57813911 0 -3.57813911 0 0 0 Z " fill="#98DCF8" transform="translate(254,52)"/>
<path d="M0 0 C2.40879165 2.06467856 2.96331553 2.88994659 4 6 C4.15070797 8.13661258 4.2485966 10.27712124 4.31640625 12.41796875 C4.35830078 13.67158203 4.40019531 14.92519531 4.44335938 16.21679688 C4.48267578 17.52712891 4.52199219 18.83746094 4.5625 20.1875 C4.60570992 21.52279978 4.649325 22.85808652 4.69335938 24.19335938 C4.79956502 27.46213297 4.90160997 30.73098333 5 34 C6.98 34 8.96 34 11 34 C9.02 37.96 7.04 41.92 5 46 C3.5975 45.855625 2.195 45.71125 0.75 45.5625 C-0.03890625 45.48128906 -0.8278125 45.40007812 -1.640625 45.31640625 C-4 45 -4 45 -6.10546875 44.40625 C-8.64713828 43.8612322 -10.4505489 44.74626528 -12.875 45.50390625 C-18.64048818 46.84989338 -24.15556269 46.88928228 -29.5 44.3125 C-32.93515666 41.13498009 -34.76533471 38.56247975 -35.46875 33.87890625 C-35.56352674 23.8207247 -35.56352674 23.8207247 -32.75 20.3125 C-25.59920275 14.29932958 -17.98097237 14.8561766 -9 15 C-9.495 12.525 -9.495 12.525 -10 10 C-17.26 10 -24.52 10 -32 10 C-32 6.04 -32 2.08 -32 -2 C-7.11197853 -5.77848256 -7.11197853 -5.77848256 0 0 Z M-15.5 25.375 C-16.2940625 25.44460937 -17.088125 25.51421875 -17.90625 25.5859375 C-20.21091852 25.83992463 -20.21091852 25.83992463 -22 28 C-21.67801034 31.09926819 -21.67801034 31.09926819 -21 34 C-19.37509046 34.02698189 -17.75005367 34.04638757 -16.125 34.0625 C-14.76761719 34.07990234 -14.76761719 34.07990234 -13.3828125 34.09765625 C-10.9831415 34.16249257 -10.9831415 34.16249257 -9 33 C-9 30.36 -9 27.72 -9 25 C-11.19091349 25 -13.31846848 25.16959606 -15.5 25.375 Z " fill="#00548E" transform="translate(35,79)"/>
<path d="M0 0 C4.09435106 2.99299585 6.41607715 5.95749756 7.5625 10.9375 C8.0374541 16.26406256 7.94535578 21.60890064 7.5625 26.9375 C6.5625 27.9375 6.5625 27.9375 3.97045898 28.05102539 C2.84454346 28.04578857 1.71862793 28.04055176 0.55859375 28.03515625 C-0.65634766 28.03193359 -1.87128906 28.02871094 -3.12304688 28.02539062 C-4.40244141 28.01701172 -5.68183594 28.00863281 -7 28 C-8.28326172 27.99548828 -9.56652344 27.99097656 -10.88867188 27.98632812 C-14.07166022 27.97449545 -17.25455762 27.95801068 -20.4375 27.9375 C-19.19422257 30.46346918 -19.19422257 30.46346918 -17.4375 32.9375 C-9.63941478 34.62708513 -1.38901182 34.0317867 6.5625 33.9375 C6.5625 37.5675 6.5625 41.1975 6.5625 44.9375 C-3.06637933 47.07725096 -15.79445692 49.52620157 -25.1875 45.3125 C-30.38039518 42.00689052 -32.44166533 37.75823043 -33.75 31.875 C-35.33731659 21.48657983 -34.43816127 12.00746883 -28.625 3.1875 C-21.31772657 -4.32855267 -8.96704657 -4.98728994 0 0 Z M-19.5625 11.6875 C-20.78415364 14.18761387 -20.78415364 14.18761387 -19.4375 17.9375 C-14.8175 17.9375 -10.1975 17.9375 -5.4375 17.9375 C-5.79813799 12.18936988 -5.79813799 12.18936988 -8.4375 9.9375 C-12.55206771 9.26605252 -16.27015143 8.97615412 -19.5625 11.6875 Z " fill="#00548E" transform="translate(119.4375,78.0625)"/>
<path d="M0 0 C1.31871094 0.04060547 1.31871094 0.04060547 2.6640625 0.08203125 C4.81877601 0.15229365 6.97221593 0.25990065 9.125 0.375 C9.30091619 3.56178936 9.40636778 6.7473164 9.5 9.9375 C9.55027344 10.83275391 9.60054688 11.72800781 9.65234375 12.65039062 C9.75802396 17.45884032 9.44741328 20.68975425 6.4765625 24.58984375 C4.84619141 26.24975586 4.84619141 26.24975586 3.125 27.375 C-0.25 27.3125 -0.25 27.3125 -2.875 26.375 C-2.71837891 27.93347656 -2.71837891 27.93347656 -2.55859375 29.5234375 C-1.79228126 40.57265607 -1.79228126 40.57265607 -4.80859375 45.59375 C-7.05431693 48.03709682 -9.33709506 50.24022797 -11.875 52.375 C-12.535 53.035 -13.195 53.695 -13.875 54.375 C-16.845 54.045 -19.815 53.715 -22.875 53.375 C-22.875 46.775 -22.875 40.175 -22.875 33.375 C-29.475 33.375 -36.075 33.375 -42.875 33.375 C-42.875 23.375 -42.875 23.375 -40.94140625 20.71875 C-40.11511719 20.1103125 -39.28882813 19.501875 -38.4375 18.875 C-35.14158813 16.55313455 -35.14158813 16.55313455 -32.875 13.375 C-27.925 13.375 -22.975 13.375 -17.875 13.375 C-17.215 11.065 -16.555 8.755 -15.875 6.375 C-12.0540323 -0.15295534 -7.01639734 -0.41210767 0 0 Z " fill="#5BB9E1" transform="translate(277.875,16.625)"/>
<path d="M0 0 C0 3.63 0 7.26 0 11 C-7.26 11 -14.52 11 -22 11 C-22 11.99 -22 12.98 -22 14 C-20.35451172 14.38091797 -20.35451172 14.38091797 -18.67578125 14.76953125 C-17.22124786 15.11674245 -15.76682658 15.46442358 -14.3125 15.8125 C-13.59126953 15.97814453 -12.87003906 16.14378906 -12.12695312 16.31445312 C-7.96802113 17.32095265 -4.4840656 18.39345092 -1 21 C1.66033294 25.77025217 2.66675302 29.57072543 2 35 C0.66624499 39.46262683 -1.23510084 42.98624677 -5.25 45.5 C-14.73705017 49.50761372 -27.3394864 47.1467808 -37 45 C-37 41.37 -37 37.74 -37 34 C-28.75 34 -20.5 34 -12 34 C-12 32.68 -12 31.36 -12 30 C-13.01320312 29.81824219 -14.02640625 29.63648438 -15.0703125 29.44921875 C-16.42196353 29.19578418 -17.77352119 28.94185135 -19.125 28.6875 C-19.79015625 28.56955078 -20.4553125 28.45160156 -21.140625 28.33007812 C-26.37670536 27.32906276 -31.15269551 26.03840496 -34.8125 22 C-37.28206995 17.8407243 -37.49224136 13.71656723 -37 9 C-35.28753965 4.31326641 -33.23922126 1.63773767 -29 -1 C-19.8713203 -4.48549588 -9.09164518 -3.24701613 0 0 Z " fill="#00548E" transform="translate(168,78)"/>
<path d="M0 0 C4.62 0 9.24 0 14 0 C16.64 4.62 19.28 9.24 22 14 C24.31 9.38 26.62 4.76 29 0 C33.95 0 38.9 0 44 0 C42.63470451 3.41323872 41.35512757 6.3144361 39.58203125 9.46875 C39.13279297 10.28730469 38.68355469 11.10585937 38.22070312 11.94921875 C37.27915065 13.65472158 36.3285512 15.35526 35.36914062 17.05078125 C34.92376953 17.86933594 34.47839844 18.68789062 34.01953125 19.53125 C33.60807861 20.26923828 33.19662598 21.00722656 32.77270508 21.76757812 C31.50409579 25.43271662 32.50457746 27.96848907 34.13916016 31.37182617 C34.60112793 32.17080322 35.0630957 32.96978027 35.5390625 33.79296875 C36.03664062 34.67017578 36.53421875 35.54738281 37.046875 36.45117188 C38.10598006 38.28756567 39.1658865 40.12349749 40.2265625 41.95898438 C40.7215625 42.83232422 41.2165625 43.70566406 41.7265625 44.60546875 C42.18627441 45.40106201 42.64598633 46.19665527 43.11962891 47.01635742 C43.41015137 47.67095947 43.70067383 48.32556152 44 49 C43.505 49.99 43.505 49.99 43 51 C38.0797868 51.41627324 33.75029978 51.44011269 29 50 C25.63504082 45.99585705 23.81947048 41.91804238 22 37 C21.66871094 37.92683594 21.33742188 38.85367188 20.99609375 39.80859375 C19.24885943 43.87671577 17.89991579 46.63893552 15 50 C9.87280418 51.46340907 5.28153543 51.41463792 0 51 C0.65003169 47.88055443 1.73103354 45.3889367 3.25 42.59375 C3.6934375 41.76746094 4.136875 40.94117188 4.59375 40.08984375 C6 37.5 6 37.5 7.40625 34.91015625 C7.8496875 34.08386719 8.293125 33.25757813 8.75 32.40625 C9.15734375 31.65666016 9.5646875 30.90707031 9.984375 30.13476562 C11.01055616 27.97781177 11.76554535 26.38092251 12 24 C11.03616439 21.46023578 11.03616439 21.46023578 9.47265625 18.8671875 C8.92802734 17.89652344 8.38339844 16.92585938 7.82226562 15.92578125 C7.24154297 14.91902344 6.66082031 13.91226563 6.0625 12.875 C4.9249105 10.87436773 3.79061831 8.87185577 2.66015625 6.8671875 C2.15105713 5.98144043 1.64195801 5.09569336 1.11743164 4.18310547 C0 2 0 2 0 0 Z " fill="#00548E" transform="translate(43,75)"/>
<path d="M0 0 C5.61 0 11.22 0 17 0 C17 10.23 17 20.46 17 31 C6.77 31 -3.46 31 -14 31 C-14 25 -14 25 -12.82250977 23.20825195 C-12.28424561 22.72316162 -11.74598145 22.23807129 -11.19140625 21.73828125 C-10.6089917 21.18156738 -10.02657715 20.62485352 -9.42651367 20.05126953 C-8.81138916 19.47747559 -8.19626465 18.90368164 -7.5625 18.3125 C-3.23541917 14.0272738 -0.16410294 10.97696679 0.3125 4.625 C0.209375 3.09875 0.10625 1.5725 0 0 Z " fill="#00528D" transform="translate(255,93)"/>
<path d="M0 0 C9.24 0 18.48 0 28 0 C28.20843436 4.37969481 28.38675587 8.74182355 28.49438477 13.12255859 C28.53927154 14.60687901 28.60041266 16.09081004 28.67895508 17.57373047 C29.09023982 25.54674065 29.24259628 31.61913192 23.58984375 37.9140625 C22.09393878 39.31334667 20.56946066 40.68374732 19 42 C18.34 42.66 17.68 43.32 17 44 C17 33.77 17 23.54 17 13 C11.39 13 5.78 13 0 13 C0 8.71 0 4.42 0 0 Z " fill="#97DBF8" transform="translate(255,80)"/>
<path d="M0 0 C2.31 0.33 4.62 0.66 7 1 C8.32 6.94 9.64 12.88 11 19 C12.88783216 15.22433567 13.99909624 11.80325354 15.125 7.75 C15.47820312 6.48671875 15.83140625 5.2234375 16.1953125 3.921875 C16.46085937 2.95765625 16.72640625 1.9934375 17 1 C19.31 1 21.62 1 24 1 C25.65 7.27 27.3 13.54 29 20 C30.2726786 14.86983274 30.2726786 14.86983274 31.54272461 9.73901367 C32.27763884 6.78787949 33.03789255 3.88632236 34 1 C37.465 0.505 37.465 0.505 41 0 C40.02511625 4.45928111 39.0443727 8.917253 38.0625 13.375 C37.78470703 14.64601562 37.50691406 15.91703125 37.22070312 17.2265625 C36.81948242 19.04414063 36.81948242 19.04414063 36.41015625 20.8984375 C36.16402588 22.01911621 35.91789551 23.13979492 35.66430664 24.29443359 C35 27 35 27 34 29 C31.03 29 28.06 29 25 29 C23.33333333 24 21.66666667 19 20 14 C18.68 18.95 17.36 23.9 16 29 C12.7 29 9.4 29 6 29 C4.02 19.43 2.04 9.86 0 0 Z " fill="#00A7DB" transform="translate(88,144)"/>
<path d="M0 0 C7.92 0 15.84 0 24 0 C24 5.94 24 11.88 24 18 C22.329375 18.04125 20.65875 18.0825 18.9375 18.125 C13.67885425 18.56322048 11.18396832 19.78770366 7.73046875 23.72265625 C6 25 6 25 0 25 C0 16.75 0 8.5 0 0 Z " fill="#00528C" transform="translate(189,32)"/>
<path d="M0 0 C0.9384375 -0.01417969 1.876875 -0.02835938 2.84375 -0.04296875 C5.6486815 0.20040031 7.19519177 0.58525393 9.5 2.1875 C11.24753864 5.06034173 11.74304774 7.17415852 11.6953125 10.515625 C11.68886719 11.31484375 11.68242187 12.1140625 11.67578125 12.9375 C11.65902344 13.7625 11.64226562 14.5875 11.625 15.4375 C11.61597656 16.27796875 11.60695312 17.1184375 11.59765625 17.984375 C11.57415817 20.05220604 11.53828908 22.11988995 11.5 24.1875 C12.16 24.1875 12.82 24.1875 13.5 24.1875 C13.5 25.8375 13.5 27.4875 13.5 29.1875 C10.08378212 29.33289953 6.66836009 29.42159725 3.25 29.5 C2.28191406 29.54189453 1.31382812 29.58378906 0.31640625 29.62695312 C-6.85469001 29.75059272 -6.85469001 29.75059272 -10.13671875 26.88671875 C-11.94546503 23.30550477 -12.13681572 21.14990889 -11.5 17.1875 C-9.6875 14.3125 -9.6875 14.3125 -6.5 12.1875 C-2.8331059 11.49223216 0.77243853 11.25930942 4.5 11.1875 C4.17 9.8675 3.84 8.5475 3.5 7.1875 C-0.79 7.1875 -5.08 7.1875 -9.5 7.1875 C-9.5 5.2075 -9.5 3.2275 -9.5 1.1875 C-6.2865962 0.24015218 -3.34527553 0.02297579 0 0 Z M-4.5 17.1875 C-5.19159401 19.03475052 -5.19159401 19.03475052 -5.5 21.1875 C-4.51 22.6725 -4.51 22.6725 -3.5 24.1875 C-0.86 23.8575 1.78 23.5275 4.5 23.1875 C4.5 20.8775 4.5 18.5675 4.5 16.1875 C1.38772805 16.1875 -1.44152152 16.64377049 -4.5 17.1875 Z " fill="#00A7DB" transform="translate(141.5,143.8125)"/>
<path d="M0 0 C3.04247152 2.69476049 4.02367886 5.05809622 5.1875 8.9375 C4.8575 11.2475 4.5275 13.5575 4.1875 15.9375 C-1.4225 15.9375 -7.0325 15.9375 -12.8125 15.9375 C-11.47686384 20.88213635 -11.47686384 20.88213635 -8.8125 21.9375 C-6.6052077 22.00842842 -4.39582548 22.02165025 -2.1875 22 C-0.40472656 21.98646484 -0.40472656 21.98646484 1.4140625 21.97265625 C2.78691406 21.95525391 2.78691406 21.95525391 4.1875 21.9375 C4.1875 23.5875 4.1875 25.2375 4.1875 26.9375 C1.20044343 28.43102829 -1.8506251 28.20317862 -5.125 28.25 C-6.44113281 28.28738281 -7.75726563 28.32476562 -9.11328125 28.36328125 C-13.32778056 27.87819104 -14.90483711 26.96517899 -17.8125 23.9375 C-19.72865465 18.18903605 -20.05174176 10.52680645 -18.05859375 4.75390625 C-13.86833504 -1.83548097 -6.93011157 -2.61804215 0 0 Z M-10.8125 4.9375 C-13.0898501 7.75259993 -13.0898501 7.75259993 -12.8125 10.9375 C-9.1825 10.9375 -5.5525 10.9375 -1.8125 10.9375 C-2.2577998 6.30730013 -2.2577998 6.30730013 -3.8125 4.9375 C-7.27062169 4.60411404 -7.27062169 4.60411404 -10.8125 4.9375 Z " fill="#00A7DB" transform="translate(195.8125,145.0625)"/>
<path d="M0 0 C9.57 0 19.14 0 29 0 C29 9.57 29 19.14 29 29 C26.03 29 23.06 29 20 29 C20 22.4 20 15.8 20 9 C13.4 9 6.8 9 0 9 C0 6.03 0 3.06 0 0 Z " fill="#00528C" transform="translate(235,41)"/>
<path d="M0 0 C3.36667667 2.87157716 4.95928737 5.51441774 5.5234375 9.93359375 C5.44335602 21.26512323 5.44335602 21.26512323 2.125 25.8125 C-2.54760429 28.92756953 -7.40500984 28.40385029 -12.875 27.8125 C-16.43179496 25.96296662 -17.44997593 24.68278738 -19.1875 21.125 C-20.66024483 14.02904763 -20.55644803 8.15982418 -16.875 1.8125 C-12.16782744 -2.4793338 -5.66088277 -2.33819071 0 0 Z M-12.875 6.8125 C-13.23370143 9.83554308 -13.23370143 9.83554308 -13.1875 13.25 C-13.20425781 14.40371094 -13.22101562 15.55742187 -13.23828125 16.74609375 C-13.11833965 19.76910813 -13.11833965 19.76910813 -11.578125 21.7265625 C-9.71087688 23.13766977 -9.71087688 23.13766977 -6.3125 22.75 C-2.8619965 22.21134051 -2.8619965 22.21134051 -1.6796875 20.03515625 C-0.04130154 15.50971154 -0.09765668 10.68726919 -1.9375 6.25 C-5.53876523 3.57809354 -9.72403011 3.66153011 -12.875 6.8125 Z " fill="#00A7DB" transform="translate(44.875,145.1875)"/>
<path d="M0 0 C0.74056641 0.02255859 1.48113281 0.04511719 2.24414062 0.06835938 C4.05947357 0.1269185 5.87375681 0.21659114 7.6875 0.3125 C8.65321354 15.78537698 8.65321354 15.78537698 4.86328125 20.24609375 C-0.47978674 22.86486854 -7.51486192 21.74170235 -13.3125 21.3125 C-13.44809675 18.74821485 -13.54683188 16.19114784 -13.625 13.625 C-13.66689453 12.90376953 -13.70878906 12.18253906 -13.75195312 11.43945312 C-13.8426082 7.46876063 -13.57723183 5.70959775 -11.3125 2.3125 C-7.35560809 -0.32542794 -4.63048335 -0.26897356 0 0 Z " fill="#01538E" transform="translate(310.3125,26.6875)"/>
<path d="M0 0 C1.51146606 0.01123901 1.51146606 0.01123901 3.0534668 0.02270508 C4.97026245 0.0636731 4.97026245 0.0636731 6.92578125 0.10546875 C10.98890625 0.16734375 15.05203125 0.22921875 19.23828125 0.29296875 C19.23828125 8.87296875 19.23828125 17.45296875 19.23828125 26.29296875 C17.23828125 27.29296875 17.23828125 27.29296875 10.23828125 27.29296875 C10.23828125 21.02296875 10.23828125 14.75296875 10.23828125 8.29296875 C2.31828125 8.29296875 -5.60171875 8.29296875 -13.76171875 8.29296875 C-12.11171875 6.64296875 -10.46171875 4.99296875 -8.76171875 3.29296875 C-8.2824292 2.70088623 -7.80313965 2.10880371 -7.30932617 1.4987793 C-4.94248619 -0.34533218 -2.95540962 -0.04500624 0 0 Z " fill="#57B8E0" transform="translate(203.76171875,22.70703125)"/>
<path d="M0 0 C0 1.98 0 3.96 0 6 C-4.62 6 -9.24 6 -14 6 C-14 6.99 -14 7.98 -14 9 C-12.86111328 9.29003906 -12.86111328 9.29003906 -11.69921875 9.5859375 C-10.70535156 9.84632813 -9.71148437 10.10671875 -8.6875 10.375 C-7.70136719 10.63023437 -6.71523437 10.88546875 -5.69921875 11.1484375 C-3 12 -3 12 0 14 C1.40710824 20.71082391 1.40710824 20.71082391 0.25 24.375 C-1 26 -1 26 -4 28 C-6.74852428 28.16856854 -9.38101859 28.2333134 -12.125 28.1875 C-12.86621094 28.18685547 -13.60742188 28.18621094 -14.37109375 28.18554688 C-19.85960541 28.14039459 -19.85960541 28.14039459 -21 27 C-21 25.35 -21 23.7 -21 22 C-16.05 22 -11.1 22 -6 22 C-6 20.35 -6 18.7 -6 17 C-6.59167969 16.96261719 -7.18335938 16.92523438 -7.79296875 16.88671875 C-12.99741828 16.45372213 -17.13178923 15.86821077 -21 12 C-21.59259259 4.77037037 -21.59259259 4.77037037 -19.125 1.5625 C-13.70688078 -2.42141119 -6.32116559 -1.68564416 0 0 Z " fill="#00A7DB" transform="translate(21,145)"/>
<path d="M0 0 C0 1.65 0 3.3 0 5 C-2.31 5.33 -4.62 5.66 -7 6 C-7.33 7.98 -7.66 9.96 -8 12 C-5.69 12 -3.38 12 -1 12 C-1 13.65 -1 15.3 -1 17 C-3.31 17 -5.62 17 -8 17 C-8 24.59 -8 32.18 -8 40 C-10.31 40 -12.62 40 -15 40 C-15 32.41 -15 24.82 -15 17 C-15.99 17 -16.98 17 -18 17 C-18 15.35 -18 13.7 -18 12 C-17.01 12 -16.02 12 -15 12 C-14.96261719 11.38511719 -14.92523438 10.77023438 -14.88671875 10.13671875 C-14.78810547 8.92435547 -14.78810547 8.92435547 -14.6875 7.6875 C-14.62949219 6.88699219 -14.57148437 6.08648437 -14.51171875 5.26171875 C-13.90500435 2.58013375 -13.15637846 1.6646627 -11 0 C-6.94952424 -1.35015859 -4.2079832 -0.62084998 0 0 Z " fill="#00A7DB" transform="translate(70,133)"/>
<path d="M0 0 C2.31 0 4.62 0 7 0 C7 2.97 7 5.94 7 9 C9.64 9 12.28 9 15 9 C15 10.65 15 12.3 15 14 C12.36 14 9.72 14 7 14 C7.33 19.61 7.66 25.22 8 31 C10.31 31 12.62 31 15 31 C15 32.98 15 34.96 15 37 C13.22950311 37.05410687 11.45853151 37.09284119 9.6875 37.125 C8.20830078 37.15980469 8.20830078 37.15980469 6.69921875 37.1953125 C4 37 4 37 1 35 C0.00986121 32.28536652 -0.11940483 29.76143721 -0.09765625 26.890625 C-0.09282227 25.75947266 -0.09282227 25.75947266 -0.08789062 24.60546875 C-0.07951172 23.82816406 -0.07113281 23.05085938 -0.0625 22.25 C-0.05798828 21.45722656 -0.05347656 20.66445312 -0.04882812 19.84765625 C-0.03708565 17.89840492 -0.01915146 15.94919262 0 14 C-0.99 14 -1.98 14 -3 14 C-3 12.35 -3 10.7 -3 9 C-2.01 9 -1.02 9 0 9 C0 6.03 0 3.06 0 0 Z " fill="#00A7DB" transform="translate(73,136)"/>
<path d="M0 0 C9.24 0 18.48 0 28 0 C26.02 2.97 26.02 2.97 24 6 C23.56300781 6.69867188 23.12601562 7.39734375 22.67578125 8.1171875 C20.49225934 10.9326169 18.6568295 12.7449462 15.01757812 13.30517578 C9.99478227 13.60902661 5.01397561 13.35532111 0 13 C0 8.71 0 4.42 0 0 Z " fill="#55B6DE" transform="translate(255,80)"/>
<path d="M0 0 C0.4343814 3.66121469 0.73145857 7.3230481 1 11 C1.17208984 12.96839844 1.17208984 12.96839844 1.34765625 14.9765625 C1.77718871 21.83611483 1.90520931 27.01961537 -2.875 32.5 C-6.51865672 36 -6.51865672 36 -9 36 C-9.23376694 31.50088553 -9.37490714 27.00334309 -9.5 22.5 C-9.56703125 21.2315625 -9.6340625 19.963125 -9.703125 18.65625 C-9.89689728 9.35518033 -9.89689728 9.35518033 -7.21875 5.30859375 C-1.97569444 0 -1.97569444 0 0 0 Z " fill="#98DDF9" transform="translate(274,32)"/>
<path d="M0 0 C1.90845703 0.04060547 1.90845703 0.04060547 3.85546875 0.08203125 C5.31919922 0.13423828 5.31919922 0.13423828 6.8125 0.1875 C6.92082169 2.26968362 6.99823541 4.35349129 7.0625 6.4375 C7.10890625 7.59765625 7.1553125 8.7578125 7.203125 9.953125 C6.8125 13.1875 6.8125 13.1875 5.21875 15.59375 C2.00803385 17.72032823 -0.12092679 17.59016293 -3.9375 17.4375 C-5.10796875 17.40140625 -6.2784375 17.3653125 -7.484375 17.328125 C-8.37640625 17.28171875 -9.2684375 17.2353125 -10.1875 17.1875 C-10.26847324 14.91725032 -10.32667704 12.64617925 -10.375 10.375 C-10.40980469 9.11042969 -10.44460938 7.84585937 -10.48046875 6.54296875 C-10.1875 3.1875 -10.1875 3.1875 -9.125 1.25 C-6.10294145 -0.40725792 -3.40573004 -0.09373569 0 0 Z " fill="#02548E" transform="translate(298.1875,-0.1875)"/>
<path d="M0 0 C1.31871094 0.04737305 1.31871094 0.04737305 2.6640625 0.09570312 C4.81916087 0.17769056 6.972526 0.30323677 9.125 0.4375 C9.30091619 3.62428936 9.40636778 6.8098164 9.5 10 C9.57541016 11.34288086 9.57541016 11.34288086 9.65234375 12.71289062 C9.76203143 17.70368011 9.44820638 20.69421702 6.1640625 24.58984375 C4.52197266 26.27319336 4.52197266 26.27319336 3.125 27.4375 C2.795 27.4375 2.465 27.4375 2.125 27.4375 C2.125 20.8375 2.125 14.2375 2.125 7.4375 C-3.815 7.4375 -9.755 7.4375 -15.875 7.4375 C-11.13489377 0.52937797 -8.21616181 -0.56300506 0 0 Z " fill="#5CBAE0" transform="translate(277.875,16.5625)"/>
<path d="M0 0 C2.0625 0.6875 2.0625 0.6875 5.0625 2.6875 C5.7225 2.0275 6.3825 1.3675 7.0625 0.6875 C10.0625 0.4375 10.0625 0.4375 13.0625 0.6875 C15.0625 2.6875 15.0625 2.6875 15.328125 5 C15.32296875 5.886875 15.3178125 6.77375 15.3125 7.6875 C15.31765625 8.574375 15.3228125 9.46125 15.328125 10.375 C15.0625 12.6875 15.0625 12.6875 13.0625 14.6875 C10.625 15 10.625 15 8.0625 14.6875 C6.25 13.1875 6.25 13.1875 5.0625 11.6875 C4.670625 12.1825 4.27875 12.6775 3.875 13.1875 C2.0625 14.6875 2.0625 14.6875 -0.4375 15.0625 C-2.9375 14.6875 -2.9375 14.6875 -4.75 13.625 C-6.59371741 10.61682949 -6.24007262 8.13682782 -5.9375 4.6875 C-4.74658157 1.45500713 -3.78140112 -0.60990341 0 0 Z " fill="#D4E2EC" transform="translate(289.9375,151.3125)"/>
<path d="M0 0 C0 1.98 0 3.96 0 6 C-4.455 7.485 -4.455 7.485 -9 9 C-9 15.6 -9 22.2 -9 29 C-10.98 29 -12.96 29 -15 29 C-15 19.76 -15 10.52 -15 1 C-11.66666667 1 -8.33333333 1 -5 1 C-3 0 -3 0 0 0 Z " fill="#00A7DB" transform="translate(175,144)"/>
<path d="M0 0 C6.27 0 12.54 0 19 0 C19 6.27 19 12.54 19 19 C17.02 19 15.04 19 13 19 C13 15.04 13 11.08 13 7 C8.71 7 4.42 7 0 7 C0 4.69 0 2.38 0 0 Z " fill="#05548E" transform="translate(261,24)"/>
<path d="M0 0 C0 8.25 0 16.5 0 25 C-2.95664519 26.4783226 -5.74229737 26.06032783 -9 26 C-10.22438535 8.97764256 -10.22438535 8.97764256 -7.25390625 4.1796875 C-2.34845711 0 -2.34845711 0 0 0 Z " fill="#99DCF9" transform="translate(223,24)"/>
<path d="M0 0 C0.74056641 0.02707031 1.48113281 0.05414062 2.24414062 0.08203125 C4.05985998 0.15231716 5.87406801 0.25992911 7.6875 0.375 C8.54860202 14.17176789 8.54860202 14.17176789 5.25 18.75 C4.404375 19.61625 3.55875 20.4825 2.6875 21.375 C2.3575 21.375 2.0275 21.375 1.6875 21.375 C1.6875 16.425 1.6875 11.475 1.6875 6.375 C-3.2625 6.375 -8.2125 6.375 -13.3125 6.375 C-9.38015268 0.46484486 -6.96282949 -0.48534468 0 0 Z " fill="#55B7DF" transform="translate(310.3125,26.625)"/>
<path d="M0 0 C4.62 0 9.24 0 14 0 C14.48828125 9.765625 14.48828125 9.765625 14 13 C12.35 14.32 10.7 15.64 9 17 C9 12.71 9 8.42 9 4 C5.37 4 1.74 4 -2 4 C-1.34 2.68 -0.68 1.36 0 0 Z " fill="#58B8DF" transform="translate(291,0)"/>
<path d="M0 0 C0.17499733 3.2284763 0.28106618 6.45572926 0.375 9.6875 C0.45041016 11.05551758 0.45041016 11.05551758 0.52734375 12.45117188 C0.67307052 19.13031568 0.67307052 19.13031568 -1.36230469 21.76025391 C-3.0234375 23.14453125 -3.0234375 23.14453125 -6 25 C-6.13558695 21.95682614 -6.23437239 18.91974438 -6.3125 15.875 C-6.35439453 15.0190625 -6.39628906 14.163125 -6.43945312 13.28125 C-6.52492845 8.83653335 -6.42377927 5.90944704 -3.54296875 2.3828125 C-1 0 -1 0 0 0 Z " fill="#99DDF9" transform="translate(287,17)"/>
<path d="M0 0 C5.14860706 1.28715177 5.86461447 2.90658001 9 7 C9.33 4.69 9.66 2.38 10 0 C10.66 0 11.32 0 12 0 C12 4.62 12 9.24 12 14 C8.65001479 12.88333826 8.20659778 12.25305075 6.3125 9.4375 C5.87550781 8.79683594 5.43851563 8.15617188 4.98828125 7.49609375 C4.66214844 7.00238281 4.33601562 6.50867188 4 6 C3.67 8.64 3.34 11.28 3 14 C2.01 14 1.02 14 0 14 C0 9.38 0 4.76 0 0 Z " fill="#D0E0EA" transform="translate(234,152)"/>
<path d="M0 0 C0.8610782 12.72482227 0.8610782 12.72482227 -2.4375 17.3125 C-3.7059375 18.6428125 -3.7059375 18.6428125 -5 20 C-5.33 20 -5.66 20 -6 20 C-6.1081866 17.41554227 -6.18737237 14.83562648 -6.25 12.25 C-6.28351563 11.52039062 -6.31703125 10.79078125 -6.3515625 10.0390625 C-6.4174248 6.41663613 -6.31755877 4.42253687 -4.109375 1.484375 C-2 0 -2 0 0 0 Z " fill="#98DCF9" transform="translate(318,28)"/>
<path d="M0 0 C2.97 0 5.94 0 9 0 C9 0.66 9 1.32 9 2 C7.02 2 5.04 2 3 2 C3 2.99 3 3.98 3 5 C4.65 5 6.3 5 8 5 C8 5.99 8 6.98 8 8 C6.35 8 4.7 8 3 8 C3 9.32 3 10.64 3 12 C4.98 12 6.96 12 9 12 C9 12.66 9 13.32 9 14 C6.03 14 3.06 14 0 14 C0 9.38 0 4.76 0 0 Z " fill="#E8F0F5" transform="translate(260,152)"/>
<path d="M0 0 C4.70588235 0.70588235 4.70588235 0.70588235 6 2 C6.47058824 7.41176471 6.47058824 7.41176471 4.5 9.875 C3.7575 10.431875 3.7575 10.431875 3 11 C4.32 11.66 5.64 12.32 7 13 C7 13.66 7 14.32 7 15 C3.7 15 0.4 15 -3 15 C-1 11 -1 11 1.0625 9 C3.07607222 6.92147384 3.59824094 5.81231342 4 3 C2.68 3 1.36 3 0 3 C0 3.66 0 4.32 0 5 C-0.99 5 -1.98 5 -3 5 C-1.125 1.125 -1.125 1.125 0 0 Z " fill="#DFEAF1" transform="translate(277,151)"/>
<path d="M0 0 C0.78375 0.04125 1.5675 0.0825 2.375 0.125 C2.519375 1.259375 2.66375 2.39375 2.8125 3.5625 C2.98671478 6.93277201 2.98671478 6.93277201 4.375 8.125 C4.705 6.805 5.035 5.485 5.375 4.125 C5.375 6.435 5.375 8.745 5.375 11.125 C5.045 10.465 4.715 9.805 4.375 9.125 C2.9828125 9.4653125 2.9828125 9.4653125 1.5625 9.8125 C-1.625 10.125 -1.625 10.125 -3.5 9 C-4.9818671 6.53022151 -4.9883156 4.95886167 -4.625 2.125 C-2.625 0.125 -2.625 0.125 0 0 Z " fill="#0B548E" transform="translate(254.625,153.875)"/>
<path d="M0 0 C3.125 0.375 3.125 0.375 6 1 C6 1.99 6 2.98 6 4 C3.03 3.505 3.03 3.505 0 3 C1.93254772 5.0245738 3.63158688 6.42105792 6 8 C6.1875 11.125 6.1875 11.125 6 14 C-0.75 15.125 -0.75 15.125 -3 14 C-3 13.34 -3 12.68 -3 12 C-1.02 12 0.96 12 3 12 C3 11.34 3 10.68 3 10 C2.175 9.566875 1.35 9.13375 0.5 8.6875 C-0.325 8.130625 -1.15 7.57375 -2 7 C-2.4375 4.4375 -2.4375 4.4375 -2 2 C-1.34 1.34 -0.68 0.68 0 0 Z " fill="#E6EEF4" transform="translate(222,151)"/>
<path d="M0 0 C0.66 1.32 1.32 2.64 2 4 C0.865625 3.979375 -0.26875 3.95875 -1.4375 3.9375 C-4.81575674 3.58422523 -4.81575674 3.58422523 -6 5 C-6.2500773 7.45809998 -6.2500773 7.45809998 -6 10 C-4.10244856 12.34973818 -4.10244856 12.34973818 -0.875 12.125 C0.548125 12.063125 0.548125 12.063125 2 12 C2 12.66 2 13.32 2 14 C-0.79870027 15.39935013 -2.90498792 15.25265405 -6 15 C-8.15120594 13.40426977 -8.90167826 12.48895135 -9.43359375 9.84375 C-9.44409536 3.54278322 -9.44409536 3.54278322 -7.3125 0.9375 C-4.69914404 -0.12196863 -2.79491785 -0.23290982 0 0 Z " fill="#E0EAF1" transform="translate(257,151)"/>
<path d="M0 0 C2.31 0 4.62 0 7 0 C7 0.66 7 1.32 7 2 C5.35 2 3.7 2 2 2 C2 2.66 2 3.32 2 4 C2.61875 4.12375 3.2375 4.2475 3.875 4.375 C6 5 6 5 8 7 C7.67028521 10.29714793 7.3773161 11.6226839 5 14 C2.375 14.125 2.375 14.125 0 14 C-0.33 13.01 -0.66 12.02 -1 11 C0.65 11 2.3 11 4 11 C4.33 9.68 4.66 8.36 5 7 C3.02 7 1.04 7 -1 7 C-0.67 4.69 -0.34 2.38 0 0 Z " fill="#D4E2EC" transform="translate(308,152)"/>
<path d="M0 0 C0.33 0 0.66 0 1 0 C1.33 2.97 1.66 5.94 2 9 C2.99 8.67 3.98 8.34 5 8 C5.33 5.69 5.66 3.38 6 1 C6.66 1 7.32 1 8 1 C8.05399736 2.45792884 8.09279177 3.91642712 8.125 5.375 C8.14820313 6.18710938 8.17140625 6.99921875 8.1953125 7.8359375 C8 10 8 10 6 12 C3.5 12.25 3.5 12.25 1 12 C-1 10 -1 10 -1.23046875 7.87109375 C-1.20919922 6.66646484 -1.20919922 6.66646484 -1.1875 5.4375 C-1.18105469 4.63183594 -1.17460937 3.82617188 -1.16796875 2.99609375 C-1 1 -1 1 0 0 Z " fill="#E7EFF4" transform="translate(297,154)"/>
<path d="M0 0 C0.66 0 1.32 0 2 0 C2.10807131 1.93627769 2.1856225 3.87427756 2.25 5.8125 C2.29640625 6.89144531 2.3428125 7.97039063 2.390625 9.08203125 C2 12 2 12 -0.015625 13.88671875 C-0.67046875 14.25410156 -1.3253125 14.62148437 -2 15 C-2.05386629 12.87527424 -2.09273071 10.75016348 -2.125 8.625 C-2.14820313 7.44164062 -2.17140625 6.25828125 -2.1953125 5.0390625 C-2 2 -2 2 0 0 Z " fill="#9CDFF9" transform="translate(303,1)"/>
<path d="M0 0 C2.0625 0.4375 2.0625 0.4375 4 1 C4 3.31 4 5.62 4 8 C2.02 8.99 2.02 8.99 0 10 C-1 9 -1 9 -1.1328125 7.1875 C-1.13023437 6.465625 -1.12765625 5.74375 -1.125 5 C-1.12757813 4.278125 -1.13015625 3.55625 -1.1328125 2.8125 C-1 1 -1 1 0 0 Z " fill="#17508B" transform="translate(299,154)"/>
<path d="M0 0 C2.0625 0.4375 2.0625 0.4375 4 1 C4 3.31 4 5.62 4 8 C2.02 8.99 2.02 8.99 0 10 C-1 9 -1 9 -1.1328125 7.1875 C-1.13023437 6.465625 -1.12765625 5.74375 -1.125 5 C-1.12757813 4.278125 -1.13015625 3.55625 -1.1328125 2.8125 C-1 1 -1 1 0 0 Z " fill="#0C4F8A" transform="translate(288,154)"/>
<path d="M0 0 C0.99 0.103125 1.98 0.20625 3 0.3125 C3.66 1.3025 4.32 2.2925 5 3.3125 C2.36 3.3125 -0.28 3.3125 -3 3.3125 C-3.33 5.9525 -3.66 8.5925 -4 11.3125 C-4.66 10.6525 -5.32 9.9925 -6 9.3125 C-5.37481259 0.55987631 -5.37481259 0.55987631 0 0 Z " fill="#B5CDDE" transform="translate(300,151.6875)"/>
<path d="M0 0 C0.66 0 1.32 0 2 0 C2 4.62 2 9.24 2 14 C1.01 13.67 0.02 13.34 -1 13 C-1.33 12.01 -1.66 11.02 -2 10 C-1.34 9.34 -0.68 8.68 0 8 C0.24212873 6.01871492 0.24212873 6.01871492 0.125 3.875 C0.063125 1.956875 0.063125 1.956875 0 0 Z " fill="#F4F8FA" transform="translate(244,152)"/>
<path d="M0 0 C0.99 0.33 1.98 0.66 3 1 C2.25 5.75 2.25 5.75 0 8 C-2.625 8.125 -2.625 8.125 -5 8 C-5.33 7.01 -5.66 6.02 -6 5 C-4.35 5 -2.7 5 -1 5 C-0.67 3.35 -0.34 1.7 0 0 Z " fill="#E2ECF2" transform="translate(313,158)"/>
<path d="M0 0 C0.33 0.99 0.66 1.98 1 3 C2.65 3 4.3 3 6 3 C6 3.99 6 4.98 6 6 C4.35 6 2.7 6 1 6 C0.67 7.32 0.34 8.64 0 10 C-0.74926071 6.33694766 -1.2380014 3.57644848 0 0 Z " fill="#BBD1E0" transform="translate(262,154)"/>
<path d="M0 0 C2.31 0 4.62 0 7 0 C7 1.65 7 3.3 7 5 C4.0625 4.1875 4.0625 4.1875 1 3 C0.67 2.01 0.34 1.02 0 0 Z " fill="#0F4886" transform="translate(222,154)"/>
<path d="M0 0 C0.99 0 1.98 0 3 0 C3 2.31 3 4.62 3 7 C2.01 7.33 1.02 7.66 0 8 C0 5.36 0 2.72 0 0 Z " fill="#034D89" transform="translate(298,155)"/>
<path d="M0 0 C2.97 0.495 2.97 0.495 6 1 C6 1.99 6 2.98 6 4 C3.36 4 0.72 4 -2 4 C-1.34 2.68 -0.68 1.36 0 0 Z " fill="#C9DBE7" transform="translate(222,151)"/>
<path d="M0 0 C1.485 0.99 1.485 0.99 3 2 C3.40843923 4.71203652 3.13336867 7.2437142 3 10 C2.34 10 1.68 10 1 10 C0.67 6.7 0.34 3.4 0 0 Z " fill="#F9FBFC" transform="translate(291,152)"/>
<path d="M0 0 C1.98 0 3.96 0 6 0 C5.67 0.99 5.34 1.98 5 3 C3.35 3 1.7 3 0 3 C0 2.01 0 1.02 0 0 Z " fill="#004080" transform="translate(263,154)"/>
<path d="M0 0 C2.0625 0.4375 2.0625 0.4375 4 1 C3.67 1.66 3.34 2.32 3 3 C2.01 3 1.02 3 0 3 C0 3.66 0 4.32 0 5 C-0.99 5 -1.98 5 -3 5 C-1.125 1.125 -1.125 1.125 0 0 Z " fill="#B7CFDF" transform="translate(277,151)"/>
</svg>
