<?xml version="1.0" encoding="UTF-8"?>
<svg version="1.1" xmlns="http://www.w3.org/2000/svg" width="320" height="135">
<path d="M0 0 C4.97106972 3.2285227 9.3271995 8.38832793 10.81640625 14.1796875 C10.81640625 15.1696875 10.81640625 16.1596875 10.81640625 17.1796875 C6.85640625 16.8496875 2.89640625 16.5196875 -1.18359375 16.1796875 C-1.43109375 15.2103125 -1.67859375 14.2409375 -1.93359375 13.2421875 C-2.55234375 11.72625 -2.55234375 11.72625 -3.18359375 10.1796875 C-8.37850839 8.19575763 -14.93326612 8.41361852 -20.12109375 10.1796875 C-24.20438271 14.13924043 -25.33685824 19.10737784 -25.55859375 24.6796875 C-25.33748185 30.23632567 -24.18868435 35.1745969 -20.18359375 39.1796875 C-15.52716513 40.73183037 -11.03539495 40.86746209 -6.18359375 40.1796875 C-3.0173928 37.99350113 -2.39395505 36.81077139 -1.18359375 33.1796875 C2.77640625 33.1796875 6.73640625 33.1796875 10.81640625 33.1796875 C10.41361651 38.68448058 8.68602212 42.3368819 4.81640625 46.1796875 C-2.28152689 51.44035303 -9.55701297 52.3161881 -18.18359375 51.1796875 C-25.33238117 49.43845486 -30.26411896 45.35100147 -34.18359375 39.1796875 C-38.13930808 30.43769961 -38.30440324 21.64680613 -35.28125 12.60546875 C-32.30130873 6.01990459 -27.4484382 1.38920542 -20.70703125 -1.19921875 C-13.9744122 -2.85631849 -6.42030379 -2.81474696 0 0 Z " fill="#E3322A" transform="translate(273.18359375,42.8203125)"/>
<path d="M0 0 C11.22 0 22.44 0 34 0 C34 2.97 34 5.94 34 9 C26.41 9 18.82 9 11 9 C11 12.96 11 16.92 11 21 C17.27 21 23.54 21 30 21 C30 23.64 30 26.28 30 29 C29 30 29 30 27.23413086 30.11352539 C26.48526611 30.10828857 25.73640137 30.10305176 24.96484375 30.09765625 C23.87224243 30.09390991 23.87224243 30.09390991 22.75756836 30.09008789 C21.8269458 30.08098389 20.89632324 30.07187988 19.9375 30.0625 C15.5134375 30.0315625 15.5134375 30.0315625 11 30 C11 36.93 11 43.86 11 51 C7.37 51 3.74 51 0 51 C0 34.17 0 17.34 0 0 Z " fill="#E3312A" transform="translate(36,42)"/>
<path d="M0 0 C13.2 0 26.4 0 40 0 C40 2.97 40 5.94 40 9 C35.38 9 30.76 9 26 9 C26 22.86 26 36.72 26 51 C22.37 51 18.74 51 15 51 C15 37.14 15 23.28 15 9 C10.38 9 5.76 9 1 9 C0.67 8.67 0.34 8.34 0 8 C0 5.36 0 2.72 0 0 Z " fill="#E3312B" transform="translate(180,42)"/>
<path d="M0 0 C3.15850062 2.75356464 3.90662809 4.34639662 4.5 8.5 C3.90662809 12.65360338 3.15850062 14.24643536 0 17 C-3.91908586 18.14009771 -6.03158504 18.40888632 -9.8125 16.8125 C-12.16919618 14.85980888 -13.18326509 13.94024566 -14 11 C-13.85713475 6.99977313 -13.61728563 4.75667271 -11.0625 1.625 C-7.12765109 -1.47518399 -4.87116005 -1.17579725 0 0 Z " fill="#E4322B" transform="translate(130,59)"/>
<path d="M0 0 C1.9375 1.6875 1.9375 1.6875 3 4 C2.77962372 7.67293796 2.63033454 9.36966546 0 12 C-6.16 12.56 -6.16 12.56 -8.875 10.75 C-10.20345668 8.68351183 -10.85463211 7.47125406 -11 5 C-8.1914099 -0.75092259 -6.20095157 -1.64515042 0 0 Z " fill="#E3312A" transform="translate(129,83)"/>
<path d="M0 0 C2.33043558 3.49565336 2.58763244 4.8865729 2 9 C-0.125 11.5 -0.125 11.5 -3 13 C-6.1875 12.4375 -6.1875 12.4375 -9 11 C-11 8 -11 8 -10.875 5 C-10 2 -10 2 -8.3125 0.0625 C-5.13778084 -1.39615475 -3.30121799 -1.00471852 0 0 Z " fill="#E3322B" transform="translate(111,51)"/>
<path d="M0 0 C2.3125 1.3125 2.3125 1.3125 4.3125 3.3125 C4.78421648 6.92899298 4.73041658 8.68562512 2.6875 11.75 C0.3125 13.3125 0.3125 13.3125 -2.75 13.25 C-7.27451299 11.80600649 -7.27451299 11.80600649 -8.6875 9.3125 C-8.6875 5.8125 -8.6875 5.8125 -7.6875 2.3125 C-4.88392738 -0.25744157 -3.72821658 -0.95372982 0 0 Z " fill="#E3322B" transform="translate(145.6875,71.6875)"/>
<path d="M0 0 C2.3125 1.3125 2.3125 1.3125 4.3125 3.3125 C4.78421648 6.92899298 4.73041658 8.68562512 2.6875 11.75 C0.3125 13.3125 0.3125 13.3125 -2.75 13.3125 C-5.6875 12.3125 -5.6875 12.3125 -7.625 10.625 C-9.11385424 7.38455253 -8.82824607 5.66344158 -7.6875 2.3125 C-4.8724359 -0.1897792 -3.70259251 -0.94717483 0 0 Z " fill="#E4322B" transform="translate(108.6875,71.6875)"/>
<path d="M0 0 C3.125 0.375 3.125 0.375 5.5625 2 C7.125 4.375 7.125 4.375 7.125 7.4375 C6.125 10.375 6.125 10.375 4.4375 12.3125 C1.19705253 13.80135424 -0.52405842 13.51574607 -3.875 12.375 C-5.875 10.125 -5.875 10.125 -6.875 7.375 C-5.79195839 3.1412919 -4.54554082 0.59289663 0 0 Z " fill="#E4322B" transform="translate(124.875,39.625)"/>
<path d="M0 0 C2.60964149 1.03012164 3.83498357 1.58694861 5.375 3.9375 C5.875 6.875 5.875 6.875 5.375 9.9375 C3.25 12.4375 3.25 12.4375 0.375 13.9375 C-2.8125 13.375 -2.8125 13.375 -5.625 11.9375 C-7.7860211 8.69596834 -8.26747553 7.70057099 -7.625 3.9375 C-5.11211175 1.20922133 -3.77767948 -0.08994475 0 0 Z " fill="#E3312A" transform="translate(144.625,50.0625)"/>
<path d="M0 0 C3.125 0.375 3.125 0.375 6 1 C7.32841008 6.43440487 7.32841008 6.43440487 5.875 8.9375 C4 10 4 10 1.4375 9.8125 C-1 9 -1 9 -3 7 C-2.67028521 3.70285207 -2.3773161 2.3773161 0 0 Z " fill="#E3322A" transform="translate(123,105)"/>
<path d="M0 0 C2.3125 1.5 2.3125 1.5 3.25 3.9375 C3.3125 6.5 3.3125 6.5 1.3125 9.5 C-1.6875 9.8125 -1.6875 9.8125 -4.6875 9.5 C-6.6875 7.5 -6.6875 7.5 -7.0625 5.0625 C-6.6875 2.5 -6.6875 2.5 -5 0.5625 C-2.6875 -0.5 -2.6875 -0.5 0 0 Z " fill="#E2312A" transform="translate(108.6875,94.5)"/>
<path d="M0 0 C1.32841008 5.43440487 1.32841008 5.43440487 -0.125 7.9375 C-2 9 -2 9 -4.5625 8.8125 C-7 8 -7 8 -9 6 C-8.75 2.9375 -8.75 2.9375 -8 0 C-5.13822943 -1.43088528 -3.06624227 -0.59991697 0 0 Z " fill="#E4322B" transform="translate(166,85)"/>
<path d="M0 0 C3.29714793 0.32971479 4.6226839 0.6226839 7 3 C6.625 6.125 6.625 6.125 6 9 C0.56559513 10.32841008 0.56559513 10.32841008 -1.9375 8.875 C-3 7 -3 7 -2.8125 4.4375 C-2 2 -2 2 0 0 Z " fill="#E1312A" transform="translate(160,41)"/>
<path d="M0 0 C3.125 0.375 3.125 0.375 6 1 C7.32841008 6.43440487 7.32841008 6.43440487 5.875 8.9375 C4 10 4 10 1.4375 9.8125 C-1 9 -1 9 -3 7 C-2.67028521 3.70285207 -2.3773161 2.3773161 0 0 Z " fill="#E4322A" transform="translate(123,20)"/>
<path d="M0 0 C2.4375 0.875 2.4375 0.875 4.4375 3.875 C4.07861965 6.83576291 3.59091979 7.72158021 1.4375 9.875 C-1.0625 10.125 -1.0625 10.125 -3.5625 9.875 C-5.5625 7.875 -5.5625 7.875 -5.875 5.4375 C-5.5625 2.875 -5.5625 2.875 -4.375 1 C-2.5625 -0.125 -2.5625 -0.125 0 0 Z " fill="#E3312A" transform="translate(144.5625,94.125)"/>
<path d="M0 0 C2.5625 0.1875 2.5625 0.1875 4.5625 2.1875 C4.1875 5.8125 4.1875 5.8125 3.5625 9.1875 C1.3125 9.9375 1.3125 9.9375 -1.4375 10.1875 C-3.75 8.25 -3.75 8.25 -5.4375 6.1875 C-3.15091463 0.24237805 -3.15091463 0.24237805 0 0 Z " fill="#E4322B" transform="translate(88.4375,83.8125)"/>
<path d="M0 0 C3.0625 0.1875 3.0625 0.1875 5.0625 2.1875 C5.3125 4.6875 5.3125 4.6875 5.0625 7.1875 C3.0625 9.1875 3.0625 9.1875 0.0625 9.4375 C-2.9375 9.1875 -2.9375 9.1875 -4.9375 7.1875 C-4.23164336 0.2701049 -4.23164336 0.2701049 0 0 Z " fill="#E2312A" transform="translate(161.9375,62.8125)"/>
<path d="M0 0 C3 -0.3125 3 -0.3125 6 0 C8 2 8 2 8.4375 4.4375 C8 7 8 7 5.75 8.9375 C3 10 3 10 0.75 9.5 C-1 8 -1 8 -1.875 5.5625 C-2 3 -2 3 0 0 Z " fill="#E1312A" transform="translate(85,63)"/>
<path d="M0 0 C3.625 0.375 3.625 0.375 7 1 C7.75 3.25 7.75 3.25 8 6 C6.0625 8.3125 6.0625 8.3125 4 10 C-0.875 8.125 -0.875 8.125 -2 7 C-2.1875 4.5625 -2.1875 4.5625 -2 2 C-1.34 1.34 -0.68 0.68 0 0 Z " fill="#E4322B" transform="translate(104,31)"/>
<path d="M0 0 C2 0.6875 2 0.6875 4 2.6875 C4.25 5.1875 4.25 5.1875 4 7.6875 C2 9.6875 2 9.6875 -0.4375 10.0625 C-3 9.6875 -3 9.6875 -4.9375 8 C-6 5.6875 -6 5.6875 -5.3125 3 C-3.77408696 0.28946274 -3.13284274 -0.48950668 0 0 Z " fill="#E5322B" transform="translate(89,41.3125)"/>
<path d="M0 0 C2.5625 0.375 2.5625 0.375 4.5 2.0625 C5.5625 4.375 5.5625 4.375 5 7.0625 C3.5625 9.375 3.5625 9.375 1.6875 10.375 C-0.4375 10.375 -0.4375 10.375 -2.6875 9.25 C-4.4375 7.375 -4.4375 7.375 -4.8125 4.8125 C-4.29280601 1.43448906 -3.37801094 0.51969399 0 0 Z " fill="#E2312A" transform="translate(143.4375,30.625)"/>
</svg>
